<svg width="6863" height="3000" viewBox="0 0 6863 3000" fill="none" xmlns="http://www.w3.org/2000/svg">
<path d="M5643 176C5889.32 176 6089 375.681 6089 622V2277C6089 2523.32 5889.32 2723 5643 2723H1055C808.681 2723 609 2523.32 609 2277V622C609 375.681 808.681 176 1055 176H5643ZM1067 215C842.22 215 660 397.22 660 622V2277C660 2501.78 842.22 2684 1067 2684H5652C5876.78 2684 6059 2501.78 6059 2277V622C6059 397.22 5876.78 215 5652 215H1067Z" fill="#2AB5B1"/>
<path d="M5652 215C5876.78 215 6059 397.22 6059 622V2277C6059 2501.78 5876.78 2684 5652 2684H1067C842.22 2684 660 2501.78 660 2277V622C660 397.22 842.22 215 1067 215H5652ZM1065 235C852.37 235 680 407.37 680 620V2279C680 2491.63 852.37 2664 1065 2664H5654C5866.63 2664 6039 2491.63 6039 2279V620C6039 407.37 5866.63 235 5654 235H1065Z" fill="#002B23"/>
<path d="M5654 235C5866.63 235 6039 407.37 6039 620V2279C6039 2491.63 5866.63 2664 5654 2664H1065C852.37 2664 680 2491.63 680 2279V620C680 407.37 852.37 235 1065 235H5654ZM1088 301C907.403 301 761 447.403 761 628V2271C761 2451.6 907.403 2598 1088 2598H5631C5811.6 2598 5958 2451.6 5958 2271V628C5958 447.403 5811.6 301 5631 301H1088Z" fill="white"/>
<path opacity="0.81" d="M792 652C792 475.269 935.269 332 1112 332H5603C5787.46 332 5937 481.537 5937 666V2232C5937 2406.52 5795.52 2548 5621 2548H1108C933.478 2548 792 2406.52 792 2232V652Z" fill="#1B7B78" fill-opacity="0.2"/>
<path d="M5631 301C5811.6 301 5958 447.403 5958 628V2271C5958 2451.6 5811.6 2598 5631 2598H1088C907.403 2598 761 2451.6 761 2271V628C761 447.403 907.403 301 1088 301H5631ZM1112 332C935.269 332 792 475.269 792 652V2232C792 2406.52 933.478 2548 1108 2548H5621C5795.52 2548 5937 2406.52 5937 2232V666C5937 481.537 5787.46 332 5603 332H1112Z" fill="#47D6D1"/>
<path d="M2820.71 30H3825.29L3929 235L3825.29 440H2820.71L2717 235L2820.71 30Z" fill="#A4A4A4"/>
<path d="M2824.17 34.873H3821.83L3924.82 235L3821.83 435.128H2824.17L2721.18 235L2824.17 34.873Z" fill="#DFDFDF"/>
<path d="M2829.24 39.7461H3815.36L3917.17 235.001L3815.36 430.255H2829.24L2727.44 235.001L2829.24 39.7461Z" fill="white"/>
<path d="M2835.59 48.7949H3809.02L3909.51 235L3809.02 421.206H2835.59L2735.1 235L2835.59 48.7949Z" fill="#146765"/>
<path d="M2839.69 52.2754H3805.61L3905.33 234.652L3805.61 417.029H2839.69L2739.97 234.652L2839.69 52.2754Z" fill="#27A09C"/>
<path d="M2843.73 56.4512H3801.57L3900.46 234.652L3801.57 412.852H2843.73L2744.85 234.652L2843.73 56.4512Z" fill="#2AB5B1"/>
<line x1="2843.31" y1="234.334" x2="3070.31" y2="233.646" stroke="white" stroke-width="9" stroke-linecap="round"/>
<path d="M3327.18 68.2852L3366.49 190.216H3493.69L3390.78 265.574L3430.09 387.504L3327.18 312.147L3224.27 387.504L3263.57 265.574L3160.66 190.216H3287.87L3327.18 68.2852Z" fill="#ABABAB"/>
<path d="M3327.18 78.7266L3364.45 193.443H3485.08L3387.49 264.341L3424.77 379.057L3327.18 308.159L3229.59 379.057L3266.86 264.341L3169.27 193.443H3289.9L3327.18 78.7266Z" fill="#E2E2E2"/>
<path d="M3327.18 87.7754L3362.58 196.239H3477.14L3384.46 263.273L3419.86 371.736L3327.18 304.702L3234.5 371.736L3269.9 263.273L3177.22 196.239H3291.78L3327.18 87.7754Z" fill="white"/>
<path d="M3327.18 190.799L3339.29 228.076H3378.49L3346.78 251.114L3358.89 288.391L3327.18 265.352L3295.46 288.391L3307.58 251.114L3275.87 228.076H3315.06L3327.18 190.799Z" fill="#FFD700"/>
<ellipse cx="3107.54" cy="235.348" rx="36.896" ry="36.893" fill="white"/>
<ellipse cx="3546.81" cy="229.082" rx="36.896" ry="36.893" fill="white"/>
<ellipse cx="3107.54" cy="235.349" rx="30.6307" ry="30.6282" fill="#2AB5B1"/>
<ellipse cx="3546.81" cy="229.083" rx="30.6307" ry="30.6282" fill="#2AB5B1"/>
<line x1="3584.71" y1="225.285" x2="3811.71" y2="224.597" stroke="white" stroke-width="9" stroke-linecap="round"/>
<path d="M3327 200L3337.1 230.749L3369.8 230.749L3343.35 249.753L3353.45 280.501L3327 261.497L3300.55 280.501L3310.65 249.753L3284.2 230.749L3316.9 230.749L3327 200Z" fill="#FFE767"/>
</svg>
