<?xml version="1.0" encoding="utf-8"?>
<!-- Generator: Adobe Illustrator 26.3.1, SVG Export Plug-In . SVG Version: 6.00 Build 0)  -->
<svg version="1.1" id="Layer_1" xmlns="http://www.w3.org/2000/svg" xmlns:xlink="http://www.w3.org/1999/xlink" x="0px" y="0px"
	 viewBox="0 0 2652.19 2636.89" style="enable-background:new 0 0 2652.19 2636.89;" xml:space="preserve">
<style type="text/css">
	.st0{fill:#878787;}
	.st1{fill:#371A45;}
	.st2{opacity:0.35;}
	.st3{fill:#293856;}
	.st4{fill:#FFFFFF;}
	.st5{fill:#878787;stroke:#371A45;stroke-width:5;stroke-linecap:round;stroke-linejoin:round;stroke-miterlimit:10;}
	.st6{fill:#293856;stroke:#371A45;stroke-width:5;stroke-linecap:round;stroke-linejoin:round;stroke-miterlimit:10;}
	.st7{fill:#179CFF;}
	.st8{fill:#111A28;}
	.st9{opacity:0.7;}
	.st10{fill:#22A7F0;}
	.st11{opacity:0.6;}
	.st12{fill:#FD6CCB;}
	.st13{opacity:0.3;}
	.st14{fill:#000072;}
	.st15{opacity:0.45;}
	.st16{fill:#39D5FF;}
	.st17{fill:#FEF26B;}
	.st18{fill:#FFEBF6;}
	.st19{fill:#FDD800;}
	.st20{fill:#F883A0;}
	.st21{fill:#B5E5FB;}
	.st22{fill:#FF4F90;}
	.st23{fill:#575B5A;}
	.st24{fill:#C1C1C1;}
	.st25{fill:#FF6982;}
	.st26{fill:#FEB71F;}
	.st27{fill:#F8B916;}
	.st28{fill:#F0835C;}
	.st29{fill:#1AC4FF;}
	.st30{fill:#B5CFDD;}
	.st31{opacity:0.2;}
	.st32{fill:#FF7878;}
	.st33{fill:#E2E2E2;}
	.st34{fill:#39A1FF;}
	.st35{fill:#4DA2FF;}
	.st36{fill:#1E79BC;}
	.st37{fill:#24D6FF;}
	.st38{fill:#FF8500;}
	.st39{fill:#7F441C;}
	.st40{fill:#4F3725;}
	.st41{fill:#77563E;}
	.st42{fill:#F7C99F;}
	.st43{fill:#F42222;}
	.st44{fill:#F91C1C;}
	.st45{fill:none;stroke:#371A45;stroke-width:34.1758;stroke-linecap:round;stroke-miterlimit:10;}
	.st46{fill:#9CA9B9;}
	.st47{opacity:0.4;}
	.st48{fill:#F9744B;}
	.st49{fill:#FA508E;}
	.st50{fill:#FF408E;}
	.st51{fill:#FF6169;}
	.st52{fill:#FC7E81;}
	.st53{fill:#F27E80;}
	.st54{fill:#32B1D1;}
	.st55{fill:#220F2D;}
	.st56{fill:none;}
	.st57{fill:none;stroke:#293856;stroke-width:22.8375;stroke-linecap:round;stroke-miterlimit:10;}
	.st58{fill:#FFB200;}
	.st59{fill:#D66B09;}
	.st60{fill:#FFC33E;}
	.st61{fill:#FFEC90;}
	.st62{opacity:0.41;}
	.st63{fill:none;stroke:#293856;stroke-width:36.5502;stroke-linecap:round;stroke-miterlimit:10;}
	.st64{fill:#FFDA22;}
	.st65{opacity:0.5;}
	.st66{fill:none;stroke:#371A45;stroke-width:26.1952;stroke-linecap:round;stroke-miterlimit:10;}
	.st67{fill:none;stroke:#371A45;stroke-width:34.9269;stroke-linecap:round;stroke-miterlimit:10;}
	.st68{fill:#FF488E;}
	.st69{fill:#B7B7B7;}
</style>
<g>
	<g>
		<g>
			<path class="st4" d="M1896.23,2053.49l-751.44-139.58c-145.32-26.99-242.14-167.98-215.14-313.3l83.81-451.17
				c26.99-145.32,167.98-242.14,313.3-215.14l751.44,139.58c145.32,26.99,242.14,167.98,215.14,313.3l-83.81,451.17
				C2182.54,1983.67,2041.55,2080.48,1896.23,2053.49z"/>
		</g>
		<g>
			<path class="st4" d="M1896.23,2053.49l-751.44-139.58c-145.32-26.99-242.14-167.98-215.14-313.3l83.81-451.17
				c26.99-145.32,167.98-242.14,313.3-215.14l751.44,139.58c145.32,26.99,242.14,167.98,215.14,313.3l-83.81,451.17
				C2182.54,1983.67,2041.55,2080.48,1896.23,2053.49z"/>
		</g>
		<g>
			<path class="st4" d="M1896.23,2053.49l-751.44-139.58c-145.32-26.99-242.14-167.98-215.14-313.3l83.81-451.17
				c26.99-145.32,167.98-242.14,313.3-215.14l751.44,139.58c145.32,26.99,242.14,167.98,215.14,313.3l-83.81,451.17
				C2182.54,1983.67,2041.55,2080.48,1896.23,2053.49z"/>
		</g>
		<g>
			<path class="st4" d="M1896.23,2053.49l-751.44-139.58c-145.32-26.99-242.14-167.98-215.14-313.3l83.81-451.17
				c26.99-145.32,167.98-242.14,313.3-215.14l751.44,139.58c145.32,26.99,242.14,167.98,215.14,313.3l-83.81,451.17
				C2182.54,1983.67,2041.55,2080.48,1896.23,2053.49z"/>
		</g>
		<g class="st31">
			
				<rect x="1243.36" y="1219.56" transform="matrix(0.9807 0.1955 -0.1955 0.9807 298.2775 -295.5448)" class="st1" width="806.44" height="287.91"/>
		</g>
		<g>
			<path class="st1" d="M1945.43,2075.26c-17.27,0-34.77-1.58-52.34-4.84l-751.44-139.58c-74.81-13.9-139.89-56.32-183.25-119.46
				c-43.36-63.14-59.58-139.12-45.69-213.92l83.8-451.17c13.9-74.81,56.32-139.89,119.46-183.24
				c63.14-43.36,139.13-59.58,213.93-45.69l751.44,139.58c155.03,28.8,257.73,178.35,228.94,333.38l-83.81,451.17
				C2200.94,1978.94,2080.47,2075.26,1945.43,2075.26z M1899.38,2036.55c65.75,12.23,132.57-2.07,188.13-40.21
				c55.55-38.15,92.88-95.38,105.09-161.13l83.81-451.17c25.33-136.35-65-267.89-201.35-293.22l-751.44-139.58
				c-65.78-12.21-132.58,2.07-188.13,40.22c-55.56,38.15-92.88,95.38-105.09,161.14l-83.8,451.16
				c-12.22,65.76,2.07,132.57,40.21,188.13c38.15,55.55,95.37,92.88,161.13,105.09L1899.38,2036.55z"/>
		</g>
		<g>
			<path class="st1" d="M1945.43,2075.26c-17.27,0-34.77-1.58-52.34-4.84l-751.44-139.58c-74.81-13.9-139.89-56.32-183.25-119.46
				c-43.36-63.14-59.58-139.12-45.69-213.92l83.8-451.17c13.9-74.81,56.32-139.89,119.46-183.24
				c63.14-43.36,139.13-59.58,213.93-45.69l751.44,139.58c155.03,28.8,257.73,178.35,228.94,333.38l-83.81,451.17
				C2200.94,1978.94,2080.47,2075.26,1945.43,2075.26z M1899.38,2036.55c65.75,12.23,132.57-2.07,188.13-40.21
				c55.55-38.15,92.88-95.38,105.09-161.13l83.81-451.17c25.33-136.35-65-267.89-201.35-293.22l-751.44-139.58
				c-65.78-12.21-132.58,2.07-188.13,40.22c-55.56,38.15-92.88,95.38-105.09,161.14l-83.8,451.16
				c-12.22,65.76,2.07,132.57,40.21,188.13c38.15,55.55,95.37,92.88,161.13,105.09L1899.38,2036.55z"/>
		</g>
		<g>
			<path class="st1" d="M1945.43,2075.26c-17.27,0-34.77-1.58-52.34-4.84l-751.44-139.58c-74.81-13.9-139.89-56.32-183.25-119.46
				c-43.36-63.14-59.58-139.12-45.69-213.92l83.8-451.17c13.9-74.81,56.32-139.89,119.46-183.24
				c63.14-43.36,139.13-59.58,213.93-45.69l751.44,139.58c155.03,28.8,257.73,178.35,228.94,333.38l-83.81,451.17
				C2200.94,1978.94,2080.47,2075.26,1945.43,2075.26z M1899.38,2036.55c65.75,12.23,132.57-2.07,188.13-40.21
				c55.55-38.15,92.88-95.38,105.09-161.13l83.81-451.17c25.33-136.35-65-267.89-201.35-293.22l-751.44-139.58
				c-65.78-12.21-132.58,2.07-188.13,40.22c-55.56,38.15-92.88,95.38-105.09,161.14l-83.8,451.16
				c-12.22,65.76,2.07,132.57,40.21,188.13c38.15,55.55,95.37,92.88,161.13,105.09L1899.38,2036.55z"/>
		</g>
		<g>
			<path class="st1" d="M1945.43,2075.26c-17.27,0-34.77-1.58-52.34-4.84l-751.44-139.58c-74.81-13.9-139.89-56.32-183.25-119.46
				c-43.36-63.14-59.58-139.12-45.69-213.92l83.8-451.17c13.9-74.81,56.32-139.89,119.46-183.24
				c63.14-43.36,139.13-59.58,213.93-45.69l751.44,139.58c155.03,28.8,257.73,178.35,228.94,333.38l-83.81,451.17
				C2200.94,1978.94,2080.47,2075.26,1945.43,2075.26z M1899.38,2036.55c65.75,12.23,132.57-2.07,188.13-40.21
				c55.55-38.15,92.88-95.38,105.09-161.13l83.81-451.17c25.33-136.35-65-267.89-201.35-293.22l-751.44-139.58
				c-65.78-12.21-132.58,2.07-188.13,40.22c-55.56,38.15-92.88,95.38-105.09,161.14l-83.8,451.16
				c-12.22,65.76,2.07,132.57,40.21,188.13c38.15,55.55,95.37,92.88,161.13,105.09L1899.38,2036.55z"/>
		</g>
		<g>
			<path class="st4" d="M1220.99,2364.7c143.16,86.33,364.37,69.75,482.54,20.93c228.41-94.37,313.08-480.27,313.08-480.27
				l-966.8-125.16C1049.82,1780.2,1041.93,2256.73,1220.99,2364.7z"/>
		</g>
		<g class="st31">
			<path class="st1" d="M2016.62,1905.38c0,0-84.7,385.9-313.08,480.24c-118.18,48.81-339.4,65.4-482.56-20.91
				c-179.04-107.97-171.19-584.5-171.19-584.5l7.55,0.96c13.97,148.66,53.31,355.08,163.63,421.61
				c143.16,86.31,364.37,69.77,482.56,20.91c131.94-54.49,215.94-206.33,263.31-324.78L2016.62,1905.38z"/>
		</g>
		<g>
			<path class="st1" d="M1474.44,2443.33c-90.41,0-185.66-17.36-262.47-63.67c-185.53-111.88-179.94-579.88-179.61-599.75
				l0.32-19.54l1005.07,130.12l-4.09,18.62c-3.54,16.12-89.32,395.93-323.47,492.67
				C1652.92,2425.44,1566.18,2443.33,1474.44,2443.33z M1230.01,2349.75c129.24,77.93,342.96,70.93,466.85,19.75
				c189.23-78.18,277.83-372.28,298.09-449.33l-927.63-120.09C1068.32,1889.78,1081.56,2260.23,1230.01,2349.75z"/>
		</g>
		<g>
			<g>
				<path class="st64" d="M2630.51,1375.01c-35.76,104.65-84.22,203.97-143.81,295.92c-109.89,169.74-257.67,314.26-433.22,420.3
					c-151.54,91.6-323.77,154.51-510.33,180.18C808.85,2372.74,131.44,1859.49,30.16,1125.24
					C-26.03,717.42,107.3,326.99,362.88,43.25c47.72-53.09,135.87-18.69,134.34,52.7c-0.48,24.1-0.35,48.33,0.44,72.65
					c1.57,46.58,5.5,93.6,12.01,140.71c13.75,99.72,38.11,195.33,71.77,285.83c6.07,16.15,12.36,32.09,18.95,47.94
					c16.15,38.77,33.97,76.45,53.48,113.08c14.06,26.54,28.99,52.43,44.75,77.76c26.76,43.13,55.88,84.48,87.19,123.99
					c12.18,15.46,24.71,30.6,37.59,45.45c9.04,10.43,18.21,20.74,27.59,30.87c34.4,37.42,70.86,72.82,109.19,106
					c3.54,3.06,7.07,6.07,10.61,9.08c21.48,18.21,43.48,35.76,66.06,52.52c5.24,3.93,10.48,7.77,15.76,11.61
					c22.53,16.37,45.62,31.96,69.11,46.85c12.7,8.08,25.54,15.94,38.55,23.53c2.75,1.62,5.46,3.23,8.25,4.8
					c1.92,1.13,3.84,2.23,5.81,3.36c4.19,2.4,8.43,4.76,12.62,7.07c22.44,12.53,45.23,24.41,68.37,35.58
					c6.94,3.41,13.93,6.68,20.96,9.91c7.55,3.49,15.15,6.94,22.79,10.3c20.04,8.82,40.43,17.2,60.95,25.06
					c31.91,12.31,64.4,23.31,97.31,33.14c33.75,10,67.98,18.73,102.64,26.06c45.97,9.82,92.73,17.2,140.01,22.09
					c53.53,5.54,107.84,7.9,162.67,6.85c20-0.35,40.08-1.14,60.21-2.44c33.09-2.1,66.36-5.37,99.8-10c2.18-0.31,4.41-0.57,6.59-0.96
					c95.44-13.62,187.12-36.98,274.13-68.98c75.49-27.68,147.48-61.86,215.41-101.77
					C2580.04,1247.92,2653.47,1307.73,2630.51,1375.01z"/>
			</g>
			<g>
				<path class="st64" d="M2630.51,1375.01c-35.76,104.65-84.22,203.97-143.81,295.92c-109.89,169.74-257.67,314.26-433.22,420.3
					c-151.54,91.6-323.77,154.51-510.33,180.18C808.85,2372.74,131.44,1859.49,30.16,1125.24
					C-26.03,717.42,107.3,326.99,362.88,43.25c47.72-53.09,135.87-18.69,134.34,52.7c-0.48,24.1-0.35,48.33,0.44,72.65
					c1.57,46.58,5.5,93.6,12.01,140.71c13.75,99.72,38.11,195.33,71.77,285.83c6.07,16.15,12.36,32.09,18.95,47.94
					c16.15,38.77,33.97,76.45,53.48,113.08c14.06,26.54,28.99,52.43,44.75,77.76c26.76,43.13,55.88,84.48,87.19,123.99
					c12.18,15.46,24.71,30.6,37.59,45.45c9.04,10.43,18.21,20.74,27.59,30.87c34.4,37.42,70.86,72.82,109.19,106
					c3.54,3.06,7.07,6.07,10.61,9.08c21.48,18.21,43.48,35.76,66.06,52.52c5.24,3.93,10.48,7.77,15.76,11.61
					c22.53,16.37,45.62,31.96,69.11,46.85c12.7,8.08,25.54,15.94,38.55,23.53c2.75,1.62,5.46,3.23,8.25,4.8
					c1.92,1.13,3.84,2.23,5.81,3.36c4.19,2.4,8.43,4.76,12.62,7.07c22.44,12.53,45.23,24.41,68.37,35.58
					c6.94,3.41,13.93,6.68,20.96,9.91c7.55,3.49,15.15,6.94,22.79,10.3c20.04,8.82,40.43,17.2,60.95,25.06
					c31.91,12.31,64.4,23.31,97.31,33.14c33.75,10,67.98,18.73,102.64,26.06c45.97,9.82,92.73,17.2,140.01,22.09
					c53.53,5.54,107.84,7.9,162.67,6.85c20-0.35,40.08-1.14,60.21-2.44c33.09-2.1,66.36-5.37,99.8-10c2.18-0.31,4.41-0.57,6.59-0.96
					c95.44-13.62,187.12-36.98,274.13-68.98c75.49-27.68,147.48-61.86,215.41-101.77
					C2580.04,1247.92,2653.47,1307.73,2630.51,1375.01z"/>
			</g>
			<g class="st65">
				<path class="st4" d="M2498.78,1283.89c-67.93,39.9-139.93,74.09-215.41,101.77c-87.01,32-178.69,55.36-274.13,68.98
					c-2.19,0.39-4.41,0.65-6.59,0.96c-33.44,4.63-66.71,7.9-99.8,10c-20.13,1.31-40.21,2.1-60.21,2.45
					c-54.84,1.05-109.15-1.31-162.67-6.86c-47.28-4.89-94.04-12.27-140.01-22.09c-34.67-7.33-68.89-16.07-102.64-26.06
					c-32.92-9.82-65.4-20.83-97.31-33.14c-20.52-7.86-40.91-16.24-60.95-25.06c-7.64-3.36-15.23-6.81-22.79-10.3
					c-7.03-3.23-14.01-6.5-20.96-9.91c-23.14-11.18-45.93-23.05-68.37-35.58c-4.19-2.31-8.43-4.67-12.62-7.07
					c-1.97-1.14-3.88-2.23-5.81-3.36c-2.8-1.57-5.5-3.19-8.25-4.8c-13.01-7.6-25.84-15.46-38.55-23.53
					c-23.49-14.89-46.58-30.47-69.11-46.85c-5.28-3.84-10.52-7.68-15.76-11.61c-22.57-16.77-44.58-34.32-66.05-52.52
					c-3.54-3.01-7.08-6.02-10.61-9.08c-38.33-33.18-74.79-68.59-109.19-106c-9.39-10.13-18.55-20.43-27.59-30.87
					c-12.88-14.84-25.41-30-37.59-45.45c-31.3-39.51-60.42-80.85-87.19-123.99c-15.76-25.32-30.69-51.21-44.75-77.76
					c-19.52-36.63-37.33-74.31-53.48-113.08c-6.59-15.85-12.88-31.78-18.95-47.94c-33.66-90.51-58.02-186.12-71.77-285.83
					c-6.51-47.11-10.43-94.13-12.01-140.71c-0.79-24.32-0.92-48.55-0.44-72.65c1.53-71.38-86.62-105.78-134.34-52.7
					c-4.68,5.19-9.22,10.5-13.82,15.76c48.05-21.52,109.43,12.26,108.16,71.94c-0.48,24.1-0.35,48.33,0.44,72.65
					c1.57,46.58,5.5,93.6,12.01,140.71c13.75,99.71,38.11,195.33,71.77,285.83c6.07,16.15,12.36,32.09,18.95,47.94
					c16.15,38.77,33.96,76.45,53.48,113.08c14.06,26.54,28.99,52.43,44.75,77.76c26.76,43.13,55.88,84.48,87.19,123.99
					c12.18,15.45,24.71,30.61,37.59,45.45c9.04,10.43,18.21,20.74,27.59,30.87c34.4,37.41,70.86,72.82,109.19,106
					c3.54,3.06,7.07,6.07,10.61,9.08c21.48,18.21,43.48,35.76,66.05,52.52c5.24,3.93,10.48,7.77,15.76,11.61
					c22.53,16.37,45.62,31.96,69.11,46.85c12.71,8.08,25.54,15.94,38.55,23.53c2.75,1.61,5.46,3.23,8.25,4.8
					c1.92,1.14,3.84,2.22,5.81,3.36c4.19,2.4,8.43,4.76,12.62,7.07c22.44,12.53,45.23,24.41,68.37,35.58
					c6.94,3.41,13.93,6.68,20.96,9.91c7.55,3.49,15.15,6.94,22.79,10.3c20.04,8.82,40.43,17.2,60.95,25.06
					c31.91,12.31,64.4,23.31,97.31,33.14c33.75,10,67.98,18.73,102.64,26.06c45.97,9.82,92.73,17.2,140.01,22.09
					c53.53,5.55,107.84,7.9,162.67,6.86c20-0.35,40.08-1.14,60.21-2.45c33.09-2.09,66.36-5.37,99.8-10
					c2.18-0.31,4.41-0.57,6.59-0.96c95.44-13.62,187.12-36.98,274.13-68.98c75.49-27.68,147.48-61.87,215.41-101.77
					c61.25-35.97,134.69,23.84,111.72,91.12c-35.76,104.65-84.22,203.97-143.81,295.92c-62.49,96.53-137.27,184.86-222.4,262.63
					c101.84-85.9,190.32-186.28,262.4-297.63c59.59-91.94,108.06-191.27,143.81-295.92
					C2633.47,1307.73,2560.04,1247.92,2498.78,1283.89z"/>
			</g>
			<g class="st31">
				<path class="st1" d="M2329.44,1744.62c-76.58,109.19-270.73,138.49-373.98,129.23c-103.21-9.26-123.25-33.36-123.25-33.36
					s-145.86,104.82-283.52,0c0,0-89.37,36.98-175.68-12.88c-86.27-49.81-96.57-83-96.57-83s-558.92-78.8-380.14-432.18
					c26.46-52.3,75.75-87.93,140.54-110.63c5.24,3.93,10.48,7.77,15.76,11.61c22.53,16.37,45.62,31.96,69.11,46.85
					c12.7,8.08,25.54,15.94,38.55,23.53c2.75,1.62,5.46,3.23,8.25,4.8c1.92,1.13,3.84,2.23,5.81,3.36c4.19,2.4,8.43,4.76,12.62,7.07
					c22.44,12.53,45.23,24.41,68.37,35.58c6.94,3.41,13.93,6.68,20.96,9.91c7.55,3.49,15.15,6.94,22.79,10.3
					c20.04,8.82,40.43,17.2,60.95,25.06c31.91,12.31,64.4,23.31,97.31,33.14c33.75,10,67.98,18.73,102.64,26.06
					c45.97,9.82,92.73,17.2,140.01,22.09c53.53,5.54,107.84,7.9,162.67,6.85c20-0.35,40.08-1.14,60.21-2.44
					c33.09-2.1,66.36-5.37,99.8-10c2.18-0.31,4.41-0.57,6.59-0.96c95.44-13.62,187.12-36.98,274.13-68.98
					C2326.42,1448.18,2393.92,1652.72,2329.44,1744.62z"/>
			</g>
			<g class="st31">
				<path class="st1" d="M362.82,43.22C107.31,327.01-26.04,717.36,30.18,1125.23c101.26,734.23,778.69,1247.46,1512.92,1146.2
					c186.57-25.7,358.84-88.65,510.36-180.24c129.11-77.95,243.21-176.78,338.24-291.14c-48.8,39.93-100.6,76.51-155.06,109.42
					c-151.56,91.6-323.79,154.55-510.39,180.25c-437.99,60.42-855.79-97.88-1143.06-391.31c20.93-5.23,40.31-14.94,57.1-29.35
					c79.65-68.35,71.82-216.88-17.53-331.78c-89.3-114.87-226.33-152.62-305.98-84.27c-5.83,5-11.18,10.41-16.04,16.22
					c-41.81-102.22-71.61-211.29-87.37-325.71C166.85,606.05,250.08,280.62,424.9,17.62C403.04,16.16,380.26,23.86,362.82,43.22z"/>
			</g>
			<g class="st31">
				
					<ellipse transform="matrix(0.0721 -0.9974 0.9974 0.0721 85.1242 3580.7781)" class="st1" cx="1967.09" cy="1744.64" rx="128.96" ry="151.19"/>
			</g>
			<g class="st31">
				
					<ellipse transform="matrix(0.2418 -0.9703 0.9703 0.2418 -542.0434 2280.3508)" class="st1" cx="1188.14" cy="1487.02" rx="111.82" ry="179.54"/>
			</g>
			<g>
				
					<ellipse transform="matrix(0.2418 -0.9703 0.9703 0.2418 -581.2173 2300.7292)" class="st64" cx="1181.59" cy="1522.28" rx="70.45" ry="156.68"/>
			</g>
			<g>
				<path class="st1" d="M1054.76,1398.19c-16,13.29-27.48,30.45-28.89,48.85l-0.61,6.79l0.51,6.83c0.12,1.13,0.04,2.25,0.31,3.38
					l0.78,3.37c0.59,2.23,0.81,4.48,1.63,6.68c1.71,4.37,2.84,8.82,5.26,13c1.12,2.1,1.94,4.28,3.27,6.31l3.92,6.07
					c10.75,16.05,25.77,29.89,42.24,41.56c16.52,11.73,34.82,21.29,53.94,28.91c38.28,15.17,80.23,22.7,121.09,19.49
					c20.34-1.81,40.56-6.26,58.37-15.4c17.78-8.94,32.94-23.06,40.11-42.43l0.05-0.13c1-2.71,4.01-4.09,6.72-3.09
					c2.35,0.87,3.7,3.25,3.36,5.64c-0.83,5.86-2.32,11.7-4.52,17.34c-2.33,5.55-5.12,11.01-8.64,15.96
					c-6.87,10.07-15.99,18.37-25.78,25.32c-19.92,13.59-42.85,21.5-65.97,25.31c-23.17,4.07-46.74,3.93-69.85,1.26
					c-23.15-2.65-45.81-8.44-67.58-16.83c-21.77-8.38-42.61-19.54-61.56-33.73c-18.73-14.34-36.2-31.42-48.21-53.08l-4.35-8.17
					c-1.45-2.71-2.43-5.76-3.64-8.63c-2.55-5.67-3.96-11.96-5.48-18.08c-0.72-3.08-0.82-6.37-1.22-9.52l-0.47-4.77
					c-0.15-1.58,0.05-3.23,0.07-4.84c0.14-3.23,0.26-6.45,0.49-9.64l1.91-9.48c2.86-12.52,9.24-24.05,17.3-33.37
					c8.14-9.34,17.98-16.55,28.44-21.74c3.22-1.6,7.12-0.28,8.71,2.93c1.37,2.75,0.6,6.01-1.67,7.89L1054.76,1398.19z"/>
			</g>
			<g>
				<path class="st1" d="M1135.92,1646.69c26.23,9.14,52.6,13.61,79.08,13.81c26.43,0.22,52.81-3.62,78.05-11.16
					c25.17-7.58,49.37-18.81,70.02-34.47c20.77-15.5,37.42-36.04,44.11-62.38l0.04-0.15c0.72-2.82,3.59-4.53,6.41-3.81
					c2.2,0.56,3.73,2.44,3.95,4.58c1.55,15.26-1.89,31.15-8.3,45.47c-6.54,14.34-16.08,27.08-27.09,38.01
					c-22.22,21.82-49.88,36.84-78.91,46.04c-29.08,9.2-60.09,12.47-90.39,8.69c-30.17-3.7-59.98-14.51-83.34-33.38
					c-2.81-2.27-3.25-6.39-0.98-9.21c1.78-2.2,4.7-2.95,7.24-2.07L1135.92,1646.69z"/>
			</g>
			<g>
				
					<ellipse transform="matrix(0.9763 -0.2166 0.2166 0.9763 -340.8342 474.5529)" class="st64" cx="1994.44" cy="1792.12" rx="113.6" ry="91.66"/>
			</g>
			<g>
				<path class="st64" d="M1356.92,1977.43c-1.03,12.51-3.68,24.95-8.04,37.1c-30.83,86.06-135.25,125.56-233.25,88.23
					c-73.6-28.07-122.67-91.49-129.44-157.72L1356.92,1977.43z"/>
			</g>
			<g>
				<path class="st1" d="M1363.36,1977.96c1.63,46.68-23.82,94.36-63.52,122.19c-19.6,14.29-42.36,23.89-65.85,29.18
					c-23.54,5.21-47.91,6.04-71.62,2.87c-47.5-6.13-92.24-28.35-125.79-61.7c-16.97-16.46-30.42-36.33-40.35-57.49
					c-9.78-21.26-15.12-44.51-15.22-67.45c-0.01-2.89,2.32-5.24,5.21-5.25c2.5-0.01,4.6,1.74,5.13,4.09l0.02,0.11
					c9.39,42.02,33.24,78.37,64.7,104.87c15.88,13.08,33.32,24.15,52.08,32.3c18.77,8.11,38.61,13.57,58.68,16.01
					c40.06,4.99,81.68-2.29,115.89-23.11c4.12-2.79,8.65-5.1,12.37-8.44c3.82-3.19,8.03-6.03,11.43-9.7
					c3.53-3.53,7.5-6.75,10.49-10.79c3.13-3.92,6.72-7.59,9.24-11.98c6.03-8.19,10.59-17.39,14.99-26.78
					c4.05-9.52,7.07-19.58,9.25-29.99l0.01-0.05c0.73-3.52,4.18-5.77,7.7-5.03C1361.18,1972.44,1363.26,1975.04,1363.36,1977.96z"/>
			</g>
			<g>
				<path class="st64" d="M449.03,718.16c7.14-36.02,8.3-77.34,2.14-120.81c-18.51-130.45-96-230.84-173.08-224.24
					c-77.08,6.6-124.56,117.7-106.06,248.15s96,230.84,173.08,224.24L449.03,718.16z"/>
			</g>
			<g>
				<path class="st1" d="M259.06,383.8c-19.61,11.62-34.7,29.44-45.63,49.48c-10.94,20.14-18.05,42.44-22.89,65.18
					c-4.8,22.8-7.06,46.21-7.74,69.56c-0.29,11.67-0.11,23.37,0.7,34.85c0.43,5.73,0.96,11.42,1.89,16.76l4.11,17
					c2.8,11.28,6.12,22.4,9.67,33.37c3.52,10.99,7.38,21.83,11.7,32.45c8.52,21.27,18.67,41.79,30.86,60.8
					c5.98,9.58,12.59,18.7,19.86,27.17c7.06,8.65,14.93,16.52,23.4,23.54c8.42,7.1,17.65,13.07,27.56,17.77
					c9.99,4.43,20.68,7.5,32.12,8.53l0.17,0.02c2.89,0.26,5.03,2.81,4.77,5.7c-0.21,2.32-1.9,4.15-4.05,4.65
					c-12.58,2.9-26.18,2.73-39.1-0.18c-12.99-2.83-25.19-8.37-36.48-15.05c-11.25-6.8-21.39-15.1-30.78-24.01
					c-9.18-9.12-17.48-18.98-25.07-29.28c-15-20.75-26.69-43.51-35.57-67.1c-8.87-23.61-14.94-48.15-17.93-72.96
					c-0.93-6.17-1.4-12.4-1.85-18.62c-0.79-6.57-1.18-12.9-1.41-19.19c-0.42-12.56-0.14-24.96,0.62-37.34
					c1.54-24.74,5.35-49.3,11.55-73.39c6.24-24.05,15.23-47.71,28.62-69.2c13.23-21.42,31.78-40.54,54.75-51.87
					c3.2-1.58,7.08-0.27,8.66,2.93C263.07,378.41,261.93,382.08,259.06,383.8z"/>
			</g>
			<g>
				<path class="st64" d="M463.92,1146.41c-46.46-10.31-92.46-6.89-133.18,12.74c-73.79,35.57-109.24,113.92-109.83,208.84
					c-0.39,62.27,16.01,130.69,50.54,196.56c87.17,166.26,256.89,253.29,379.08,194.39c45.47-21.92,77.95-60.95,96.32-109.9
					c31-82.59,17.7-191.1-37.03-295.5L463.92,1146.41z"/>
			</g>
			<g>
				<path class="st1" d="M330.74,1159.15c-19.25,11.48-36.18,26.09-49.73,43.11c-13.54,17.02-24.07,36.13-31.25,56.42
					c-7.31,20.24-11.82,41.43-13.98,62.84c-2.08,21.4-2.65,43.12-0.88,64.52c0.8,10.72,2.14,21.4,3.95,32
					c1.67,10.62,3.94,21.14,6.39,31.6c5.29,20.85,11.76,41.41,19.95,61.32c16.26,39.84,37.81,77.62,64.07,111.59
					c13.06,17.04,27.35,33.12,42.77,47.97c15.31,14.97,31.87,28.61,49.4,40.75c34.99,24.27,74.31,42.56,115.82,50.14
					c20.73,3.97,41.91,4.14,62.77,1.73c20.79-2.81,41.31-9.04,60.06-19.13c18.91-9.81,35.95-23.46,50.55-39.67
					c14.56-16.26,26.5-35.13,36.22-55.31c-6.09,21.56-15.59,42.42-28.62,61.3c-13.03,18.88-29.93,35.35-49.37,48.41
					c-19.54,12.93-41.83,21.8-64.92,26.95c-11.59,2.34-23.39,3.93-35.22,4.18c-5.92,0.39-11.81-0.01-17.74-0.01
					c-5.87-0.51-11.82-0.63-17.65-1.48c-47.1-5.3-91.4-24.29-130.4-49.63c-39.13-25.51-72.97-58.26-101.33-94.88
					c-28.24-36.78-50.93-77.59-67.21-120.91c-16.15-43.31-25.99-89.27-26.62-135.66c-0.78-46.16,6.61-93.02,26.25-135.22
					c10.11-20.85,23.33-40.31,39.86-56.3C290.33,1179.74,309.8,1167.14,330.74,1159.15z"/>
			</g>
			<g>
				<path class="st1" d="M1952.5,1885.17c-32.99-0.54-66.4-10.77-94.81-29.91c-14.03-9.79-26.86-21.7-37.41-35.72
					c-10.33-14.14-18.5-30.24-23.01-47.68c-4.55-17.37-5.56-35.93-2.21-53.75c2.98-17.87,9.63-35.16,19.27-50.42
					c9.66-15.31,22.45-28.22,36.54-38.94c14.18-10.6,29.75-19.32,46.35-25.03c16.58-5.7,33.79-9.12,51.13-10.5
					c17.37-1.03,34.74,0.12,51.75,3.32c16.95,3.64,33.46,9.21,49.03,16.88c15.56,7.73,29.72,18.16,42.26,30.17
					c25.32,23.75,42.07,57.49,43.85,92.34c0.82,17.36-1.67,34.79-8.02,50.68c-3.15,7.93-6.99,15.53-11.62,22.56
					c-4.52,7.12-10.37,13.17-15.69,19.46c-1.85,2.18-5.11,2.46-7.29,0.61c-1.98-1.68-2.39-4.52-1.06-6.67l0.41-0.66
					c4.03-6.55,8.52-12.69,11.59-19.6c3.28-6.77,5.87-13.79,7.73-20.94c1.8-7.17,3.01-14.43,3.42-21.72
					c0.05-7.32,0.15-14.58-1.12-21.71c-4.06-28.59-19.71-54.6-41.67-73.2c-43.67-37.88-109.38-48.06-162.91-28.33
					c-26.6,9.94-50.88,26.81-65.97,49.97c-15.3,22.75-21.37,51.28-15.78,78.43c5.52,27.2,22.32,52.38,45,70.96
					c22.7,18.82,51.26,30.97,81.51,36.54l0.06,0.01c3.52,0.65,5.85,4.03,5.2,7.54C1958.4,1883.03,1955.61,1885.23,1952.5,1885.17z"
					/>
			</g>
			<g>
				<path class="st1" d="M2172.59,1680.78c17.14,27.47,25.99,60.85,24.71,94.33c-1.16,33.57-13.35,66.61-32.61,94.28
					c-19.05,28.04-45.84,50-75.35,65.66c-29.61,15.65-62.29,25.05-95.4,28.07c-33.13,3.01-66.65-0.08-98.54-9.21
					c-31.88-9.09-62.11-24.36-87.79-45.37c-25.71-20.83-47.19-47.34-60.34-77.74c-12.91-30.41-17.55-64.28-11.88-96.07
					c0.51-2.84,3.22-4.73,6.05-4.22c2.55,0.45,4.34,2.69,4.3,5.2l0,0.1c-0.39,30.31,7.04,59.76,21.1,85.46
					c13.97,25.82,34.77,47.32,58.24,64.43c23.76,16.84,50.58,29.45,78.92,36.37c28.29,6.92,57.82,9.26,86.69,6.38
					c28.86-2.87,57.17-10.81,82.87-23.8c25.73-12.84,48.91-30.89,66.33-53.49l6.46-8.54c2.03-2.93,3.69-6.08,5.57-9.11
					c1.71-3.11,3.96-5.99,5.22-9.33l4.46-9.72c1.71-3.17,2.7-6.6,3.84-9.99l3.45-10.19l2.21-10.54c0.69-3.53,1.65-7.04,1.98-10.63
					c4.01-28.67-0.59-58.57-11.98-86.45c-1.36-3.31,0.23-7.1,3.54-8.46C2167.6,1676.99,2170.95,1678.15,2172.59,1680.78z"/>
			</g>
			<g class="st31">
				<path class="st1" d="M1052.19,1950.09c3.58,39.09,34.26,76.03,81.03,91.8c62.27,20.97,129.52-3.57,150.21-54.81
					c2.93-7.23,4.76-14.62,5.56-22.03c10.83-82.3-56.97-125.21-115.7-131.38C1106.92,1826.69,1047.84,1863.84,1052.19,1950.09z"/>
			</g>
			<g>
				<path class="st64" d="M1058.32,1955.26c3.58,39.09,34.26,76.03,81.03,91.8c62.27,20.97,129.52-3.57,150.21-54.81
					c2.93-7.23,4.76-14.62,5.56-22.03c-14.65-27.45-41.83-50.6-77.51-62.64C1154.35,1886.3,1086.43,1907.59,1058.32,1955.26z"/>
			</g>
			<g>
				<path class="st1" d="M1209.68,1834.47c25.18,6.9,48.7,21.66,66.58,42.22c8.81,10.38,16.21,22.19,21.55,35.12
					c5.23,12.96,8.23,27.08,8.49,41.45c0.44,14.26-2.18,29.13-7.93,42.48c-5.46,13.52-13.82,25.99-24.17,36.33
					c-21.03,20.53-49.16,31.93-77.27,34.39c-14.1,1.09-28.25,0.21-41.96-2.57c-13.67-2.94-26.87-7.61-39.16-14.06
					c-24.56-12.82-45.85-32.29-59.49-56.57c-13.74-24.02-19.66-53.23-13.88-80.51c2.96-13.53,8.43-26.42,16.4-37.44
					c7.86-11.09,18.02-20.23,29.29-26.91c2.48-1.47,5.69-0.65,7.17,1.83c1.29,2.19,0.82,4.93-1,6.56l-0.03,0.02
					c-17.65,15.83-28.55,37.24-30.32,59.31c-2.11,22.01,4.9,43.93,16.91,62.17c12.39,18.11,29.72,32.82,49.63,42.02
					c2.45,1.23,4.99,2.26,7.56,3.21c2.53,1.06,5.12,1.93,7.75,2.7c2.62,0.75,5.17,1.8,7.84,2.34l7.97,1.76
					c10.7,1.78,21.52,2.43,32.19,1.47c21.24-2.11,41.61-10.4,56.63-24.36c7.44-7.01,13.42-15.38,17.7-24.68
					c4.6-9.25,6.87-19.32,7.42-29.86c0.6-10.46-0.9-21.17-4.1-31.56c-3.1-10.43-8.02-20.52-14.4-29.78
					c-12.53-18.79-30.82-34.01-51.95-45l-0.11-0.06c-3.18-1.66-4.42-5.57-2.76-8.75
					C1203.64,1834.97,1206.79,1833.67,1209.68,1834.47z"/>
			</g>
			<g class="st31">
				
					<ellipse transform="matrix(0.8201 -0.5722 0.5722 0.8201 -745.8135 543.6735)" class="st1" cx="491.7" cy="1457.91" rx="187.65" ry="258.2"/>
			</g>
			<g>
				
					<ellipse transform="matrix(0.7709 -0.637 0.637 0.7709 -852.1707 642.6855)" class="st64" cx="467.23" cy="1505.84" rx="138.01" ry="218.87"/>
			</g>
			<g>
				<path class="st1" d="M512.87,1690.42c23,3.8,46.45,3.36,68.17-2.51c21.72-5.83,41.53-17.27,57.11-32.78
					c15.71-15.42,27.33-34.86,34.56-55.94c7.34-21.06,11.1-43.55,11.3-66.22c0.59-45.38-10.62-91.03-30.31-132.44
					c-19.31-41.66-46.98-79.52-81.1-109.7c-33.86-30.2-75.37-52.48-118.87-58.48c-21.67-3-43.67-1.14-63.81,6.05
					c-20.13,7.23-38.4,19.47-52.59,35.98c-14.32,16.41-24.51,36.67-31.09,58.25c-6.64,21.62-9.44,44.66-9.32,67.8
					c0.16,46.43,12.27,93.01,31.98,136.22l0.01,0.03c1.19,2.62,0.04,5.71-2.58,6.9c-2.45,1.12-5.31,0.16-6.66-2.1
					c-24.81-42.15-41.05-90.2-44.51-140.27c-1.69-25.01,0.15-50.51,6.32-75.4c6.02-24.88,17.14-49.1,33.72-69.79
					c16.48-20.69,38.74-37.43,63.84-46.9c25.06-9.67,52.45-12.49,78.58-9.51c26.21,2.86,51.34,10.99,74.38,22.44
					c11.53,5.73,22.62,12.22,33.24,19.34c10.55,7.22,20.64,15.04,30.28,23.34c38.4,33.51,68.18,75.69,89.27,121.47
					c10.45,23,18.34,47.17,23.66,71.95c5.18,24.8,7.73,50.31,6.31,75.85c-1.21,25.5-6.25,51.07-15.85,75.16
					c-9.66,24.01-24.56,46.39-44.24,63.78c-19.77,17.24-44.01,29.14-69.34,33.88c-12.67,2.32-25.51,3.14-38.15,2.41
					c-12.66-0.71-25.08-3.01-37.12-6.2c-3.45-0.92-5.51-4.46-4.59-7.91c0.86-3.24,4.03-5.25,7.27-4.73L512.87,1690.42z"/>
			</g>
			<g class="st31">
				<path class="st1" d="M226.91,578.96c0.98,39.49,10.9,77.72,26.45,108.64c18.25,36.25,44.2,62.58,72.56,69.29
					c52.54,12.49,93.44-46.89,91.3-132.63c-1.99-81.83-42.47-158.12-91.88-175.79c-2.35-0.87-4.74-1.58-7.12-2.14
					C265.67,433.84,224.78,493.21,226.91,578.96z"/>
			</g>
			<g>
				
					<ellipse transform="matrix(0.9284 -0.3716 0.3716 0.9284 -225.0945 170.8668)" class="st64" cx="330.75" cy="669.42" rx="69.71" ry="125.09"/>
			</g>
			<g>
				<path class="st1" d="M404.53,679.38c2.51-26.85,0.82-53.85-5.13-79.8c-5.45-26-14.89-50.96-27.91-73.13
					c-6.78-10.87-14.32-21.09-22.93-29.69c-8.56-8.58-18.24-15.56-28.14-19.04c-9.85-3.61-19.59-3.55-28.42-0.19
					c-8.86,3.31-16.97,10.51-23.54,19.88c-6.59,9.39-11.43,20.76-15.07,32.64c-3.62,11.92-5.93,24.54-6.99,37.39
					c-0.82,6.39-0.66,12.91-0.98,19.38c0.32,6.5,0.1,13.03,0.89,19.54c0.88,13.06,3.1,26.04,5.78,38.9
					c3.11,12.75,7.01,25.31,11.92,37.47c5.03,12.08,11.13,23.69,18.38,34.46c7.31,10.69,16.08,20.28,26.21,27.79
					c10.14,7.43,21.98,12.43,34.68,12.73l0.15,0c2.88,0.07,5.17,2.46,5.1,5.34c-0.06,2.55-1.94,4.63-4.36,5.03
					c-15.23,2.54-31.14-1.55-44.42-8.84c-13.46-7.26-24.75-17.55-34.57-28.72c-9.62-11.37-17.52-23.93-24.45-36.95
					c-6.89-13.06-11.95-26.89-16.42-40.9l-2.87-10.63c-1.01-3.54-1.87-7.11-2.54-10.73l-2.19-10.82l-1.46-10.94
					c-1.16-7.28-1.29-14.7-1.92-22.07c0.01-7.42-0.42-14.84,0.18-22.3c0.53-14.91,2.9-29.9,7.02-44.68
					c4.09-14.77,10.11-29.4,19.34-42.95c9.12-13.44,22.39-25.99,39.66-32.56c17.17-6.74,36.98-5.69,53.02,0.68
					c16.2,6.38,29.14,16.8,39.74,28.23c10.59,11.53,19.08,24.26,26.08,37.54c6.79,13.36,12.24,27.17,16.54,41.25
					c3.76,14.22,7.02,28.5,8.48,43c3.23,28.85,1.87,58.39-6.19,86.18c-1,3.44-4.59,5.42-8.03,4.42c-3.04-0.88-4.94-3.79-4.65-6.83
					L404.53,679.38z"/>
			</g>
			<g>
				<path class="st1" d="M1360.09,2301.53c-306.88,0.01-607.45-105.69-849.34-299.18c-250.17-200.11-422.17-482.24-484.33-794.41
					c-2.78-14.17-5.11-26.76-7.1-38.54c-2.09-12.35-4.06-25.1-6.01-38.97c-1.38-9.78-2.7-20.01-3.93-30.41
					c-1.17-10.17-2.26-20.24-3.23-30.35c-0.92-9.8-1.75-19.62-2.47-29.38c-0.38-4.93-0.69-9.93-1.02-14.92l-0.06-1.04
					c-0.24-3.82-0.45-7.59-0.66-11.37l-0.19-3.33c-0.26-5.24-0.48-10.35-0.68-15.5c-0.21-5.03-0.4-10.04-0.52-15.06
					c-0.13-5-0.26-10.01-0.33-15.03c-0.09-4.91-0.16-9.93-0.19-14.93c-0.03-5.01-0.06-10.03-0.01-15l0.02-3.21
					c0.02-3.93,0.04-7.85,0.13-11.76c0.01-1.64,0.05-3.56,0.08-5.49l0.28-11.47c0.11-4.84,0.29-9.8,0.5-14.81
					c0.9-23.82,2.49-47.96,4.69-71.7l1.01-10.73c0.62-6.29,1.3-12.46,2.04-18.64c0.35-3.17,0.72-6.46,1.15-9.77
					c2.52-20.76,5.6-41.88,9.14-62.65c0.49-2.91,1-5.88,1.52-8.86l0.41-2.29c0.29-1.67,0.59-3.34,0.92-4.99
					c0.76-4.38,1.67-9.18,2.62-14.01c3.51-18.29,7.62-37.37,12.2-56.62c1.08-4.65,2.24-9.39,3.44-14.11
					c9.15-36.8,20.12-73.96,32.56-110.34c2.98-8.7,6.03-17.35,9.18-25.99c6.85-18.68,13.9-36.77,20.97-53.78
					c1.5-3.7,3.09-7.53,4.73-11.33c7.55-17.8,15.83-36.15,24.55-54.46c3.73-7.8,7.51-15.5,11.38-23.19
					c5.5-11.01,11.22-22.08,16.99-32.85c2.94-5.49,5.95-10.98,8.96-16.42c19.9-36.03,41.8-71.69,65.07-106
					c7.94-11.68,16.19-23.41,24.51-34.86c4.73-6.53,9.58-13.08,14.45-19.57c5.2-6.95,10.5-13.81,15.87-20.69
					c9.23-11.82,18.97-23.83,29.79-36.73c6.29-7.47,12.98-15.25,20.49-23.79c3.45-3.91,6.94-7.83,10.41-11.7
					c2.21-2.48,4.58-4.86,7-7.03c0.44-0.42,1.05-0.99,1.71-1.55c0.99-0.89,2-1.7,3.04-2.51c0.57-0.49,1.16-0.95,1.8-1.39
					c0.55-0.41,1.1-0.81,1.65-1.21l0.97-0.7c1.13-0.81,1.96-1.33,2.8-1.85l1.13-0.73c0.64-0.42,1.28-0.84,1.92-1.24l0.67-0.39
					c15.78-9.32,33.78-13.61,52.22-12.55c0.21,0,0.7,0.01,1.19,0.05l2.89,0.21c3.83,0.38,7.78,1.04,11.76,1.96
					c42.16,9.71,71.82,45.04,73.76,87.89c0.11,2.14,0.12,4.39,0.08,6.68c-0.15,6.82-0.24,13.5-0.24,20.19
					c-0.05,4.32-0.03,8.4-0.01,12.55c0.03,7.28,0.11,14.53,0.3,21.76c0.07,4.66,0.19,9.09,0.32,13.58
					c0.76,25.51,2.29,51.26,4.55,76.53c0.36,4.44,0.76,8.7,1.2,12.99c0.42,4.6,0.89,9,1.39,13.43c1.35,12.27,2.65,23.03,3.98,32.98
					l-17.21,3.08l17.29-2.48l0.76,5.5c0.53,3.79,1.05,7.58,1.62,11.36l0.34,2.33c0.74,4.96,1.45,9.73,2.25,14.51
					c0.46,3.07,0.92,5.87,1.41,8.64c0.71,4.33,1.42,8.46,2.16,12.61l0.09,0.54c0.13,0.83,0.26,1.67,0.44,2.49l0.13,0.65
					c0.98,5.66,2.05,11.27,3.15,16.9c1.21,6.37,2.46,12.62,3.75,18.81c1.73,8.37,3.58,16.65,5.45,24.91c0.98,4.29,1.98,8.61,3,12.92
					l2.08,8.5C599.94,634,687.35,808.93,812.67,962.15c204.09,249.48,490.4,416.42,806.18,470.06
					c73.86,12.58,149.42,19.02,224.44,18.55c3.04,0.16,5.83-0.02,8.7-0.05l4.47-0.04c2.26-0.03,4.56-0.08,6.86-0.14
					c4.98-0.05,9.8-0.18,14.58-0.33c3-0.08,5.94-0.19,8.89-0.3c8.18-0.27,16.25-0.66,24.36-1.14c10.03-0.53,20.21-1.19,31.18-2.02
					l1.63-0.14c5.59-0.48,11.17-0.96,16.77-1.47c6.53-0.59,13.02-1.23,19.55-1.95l0.16-0.02c0.14-0.01,0.28-0.03,0.42-0.04
					l0.12-0.01c6.45-0.7,12.92-1.44,19.37-2.24l1.25-0.16c5.66-0.71,11.33-1.43,17.04-2.21c33.03-4.51,66.43-10.35,99.28-17.38
					c5.38-1.17,10.8-2.34,16.2-3.57c5.5-1.23,10.87-2.51,16.23-3.8c5.42-1.27,10.77-2.62,16.04-3.95
					c99.47-25.21,195.97-62.06,286.81-109.54l4.54-2.38c3.19-1.67,6.38-3.34,9.54-5.06l11.28-6.17c5.92-3.23,11.77-6.49,17.56-9.82
					l13.97-8.13c11.79-6.91,24.47-11.17,37.58-12.59c2.13-0.23,4.3-0.39,6.45-0.44c3.98-0.2,8.04-0.08,12.39,0.35l4.41,0.56
					c6.59,0.97,13.08,2.65,19.34,5.02c12.72,4.86,24.54,12.51,34.22,22.15c13.11,13.17,21.99,29.43,25.72,47.09
					c2.86,13.62,2.59,27.53-0.81,41.37c-0.26,1.21-0.68,2.81-1.13,4.32c-0.53,1.75-0.95,3.07-1.42,4.4
					c-3.75,11-7.9,22.61-12.62,35.29c-2.19,5.88-4.42,11.74-6.68,17.57c-6.68,17.19-13.92,34.71-21.51,52.1
					c-5.58,12.69-10.66,23.86-15.56,34.2c-23.68,50.24-50.58,99.34-79.94,145.89c-3.07,4.84-6.12,9.64-9.18,14.38
					c-3.6,5.53-7.08,10.85-10.6,16.1c-3.21,4.8-6.47,9.62-9.74,14.44c-8.55,12.41-16.12,23.08-23.23,32.75
					c-14.76,20.25-30.3,40.36-46.17,59.72c-0.91,1.12-1.88,2.3-2.89,3.47l-2.79,3.38l-0.86,1.48l-1.2,1.03
					c-1.62,1.96-3.26,3.91-4.91,5.85l-0.43,0.51c-0.32,0.39-0.67,0.8-1.05,1.22l-2.56,3.02c-1.71,2.05-3.43,4.05-5.15,6.04
					l-3.62,4.15c-0.94,1.15-1.96,2.29-2.97,3.4c-1.82,2.12-3.69,4.26-5.56,6.39c-1.61,1.82-2.96,3.36-4.34,4.81
					c-1.71,2-3.48,3.96-5.23,5.87l-4.52,4.95c-1.02,1.19-2.06,2.32-3.15,3.42c-0.6,0.69-1.21,1.36-1.82,2.02
					c-3.6,3.9-7.2,7.78-10.87,11.63c-0.44,0.51-0.96,1.07-1.57,1.65c-2.29,2.44-4.58,4.84-6.88,7.23l-0.62,0.65
					c-1.58,1.63-3.17,3.28-4.77,4.88c-3.99,4.18-8.32,8.56-12.68,12.92l-0.43,0.42c-0.29,0.31-0.62,0.64-0.97,0.97
					c-0.74,0.69-1.31,1.28-1.89,1.87c-1.89,1.92-3.63,3.62-5.38,5.32c-1.77,1.76-3.66,3.65-5.63,5.5c-0.87,0.88-1.77,1.75-2.67,2.62
					l-1.21,1.18c-0.09,0.1-0.45,0.44-0.84,0.8l-0.13,0.13c-2.57,2.48-5.15,4.96-7.76,7.42l-2.18,2.05
					c-3.04,2.87-6.25,5.84-9.44,8.78c-1.09,1.06-2.21,2.1-3.33,3.12l-1.49,1.39c-2.7,2.47-5.21,4.75-7.76,7.01l-0.39,0.36
					c-1.1,1.02-2.22,2.04-3.35,3.02c-1.86,1.7-4.04,3.63-6.23,5.58l-3.62,3.18c-2.13,1.87-4.28,3.75-6.44,5.6l-3.16,2.77
					c-3.79,3.3-7.6,6.5-11.41,9.7c-0.32,0.29-0.96,0.84-1.67,1.42l-9.25,7.7c-0.76,0.66-1.83,1.55-2.93,2.42l-7.5,6.1
					c-2.84,2.31-5.67,4.6-8.54,6.88c-3.41,2.73-6.57,5.25-9.77,7.7c-1.37,1.12-2.75,2.19-4.18,3.24c-3.67,2.87-7.38,5.72-11.13,8.54
					c-1.25,0.97-2.71,2.07-4.19,3.18l-1.23,0.92c-0.79,0.62-1.87,1.42-2.96,2.22l-0.78,0.57c-1.28,0.97-2.72,2.05-4.24,3.14
					c-1.93,1.48-4.28,3.17-6.66,4.89l-0.82,0.59c-0.46,0.35-0.92,0.68-1.37,1.01l-1.44,1.04c-3.88,2.82-7.76,5.63-11.72,8.4
					c-1.19,0.87-2.72,1.93-4.22,2.95c-3.41,2.42-7.13,4.99-10.86,7.57l-1.91,1.32c-0.71,0.53-1.44,1.04-2.19,1.51
					c-1.1,0.79-2.23,1.55-3.35,2.28c-3.52,2.42-7.05,4.78-10.61,7.11c-0.22,0.16-0.44,0.31-0.66,0.46
					c-0.52,0.38-0.99,0.68-1.37,0.91l-2.41,1.59c-2.89,1.89-5.77,3.78-8.71,5.66c-1.19,0.81-2.66,1.77-4.22,2.71
					c-4.4,2.84-8.51,5.48-12.65,8.04c-2.29,1.47-4.85,3.12-7.47,4.68c-2.57,1.59-5.29,3.25-8.05,4.92l-0.03,0.05l-17.41,10.42
					c-0.6,0.38-1.52,0.9-2.45,1.43c-3.17,1.86-6.34,3.67-9.51,5.49l-3.49,2c-8.35,4.82-17.39,9.85-28.4,15.79
					c-12.82,6.91-24.52,12.99-35.79,18.57c-3.96,2.03-8.17,4.12-12.41,6.15c-0.57,0.32-1.25,0.68-2.03,1.03
					c-2.24,1.09-4.51,2.17-6.78,3.24c-2.17,1.07-4.58,2.23-7.03,3.36c-3.38,1.62-6.98,3.28-10.6,4.94l-2.34,1.08
					c-4.36,2.03-8.78,4.03-13.22,6.02c-0.87,0.42-1.76,0.8-2.64,1.15c-3.53,1.58-7.06,3.15-10.65,4.68
					c-3.82,1.67-7.84,3.39-11.88,5.08l-0.77,0.33c-2.5,1.05-5,2.11-7.52,3.15c-1.02,0.45-2.01,0.86-3.03,1.25
					c-1.17,0.5-2.36,0.99-3.54,1.44c-3,1.26-6.03,2.48-9.04,3.68c-5.41,2.17-10.88,4.34-16.37,6.44c-8.07,3.1-16.25,6.17-24.46,9.12
					l-15.57,5.7l-0.14-0.08c-1.89,0.66-3.79,1.32-5.69,1.99l-9.43,3.29l-0.13-0.06c-0.26,0.09-0.53,0.18-0.8,0.27
					c-3.43,1.16-6.84,2.28-10.21,3.35l-5.68,1.88c-2.63,0.84-5.04,1.61-7.46,2.32c-0.91,0.32-1.82,0.61-2.78,0.87
					c-1.59,0.52-3.21,1.03-4.83,1.53l-3.4,1.03c-2.05,0.62-4.11,1.25-6.18,1.85c-0.51,0.18-1.06,0.36-1.63,0.52l-3.43,1.04
					c-3.12,0.93-5.88,1.75-8.67,2.51l-0.99,0.29c-0.99,0.29-1.99,0.59-3,0.85c-0.33,0.1-0.68,0.2-1.03,0.29
					c-1.91,0.58-3.84,1.1-5.82,1.65c-1.54,0.47-3.13,0.92-4.69,1.32c-0.87,0.24-1.88,0.51-2.91,0.77c-0.79,0.25-1.59,0.47-2.41,0.67
					c-1.27,0.37-2.52,0.7-3.81,1.02c-2.24,0.63-4.51,1.24-6.82,1.83l-5.84,1.52c-1.25,0.37-2.5,0.68-3.8,0.96
					c-2.42,0.66-4.87,1.25-7.38,1.86l-6.16,1.54c-3.67,0.9-7.43,1.8-11.21,2.7l-11.66,2.7c-3.7,0.83-7.4,1.67-11.12,2.47
					c-5.61,1.22-11.21,2.41-16.79,3.51c-0.9,0.24-1.79,0.42-2.69,0.57c-2.76,0.56-5.54,1.11-8.32,1.66l-0.07,0.1l-16.61,3.06
					c-4.05,0.75-8.15,1.47-12.26,2.2l-8.19,1.37c-2.15,0.41-4.58,0.8-7.06,1.16c-1.59,0.3-3.14,0.55-4.76,0.8
					c-2.68,0.42-5.42,0.83-8.12,1.23c-1.4,0.26-2.73,0.46-4.07,0.61c-2.08,0.34-4.16,0.64-6.23,0.95l-1.22,0.2
					c-2.61,0.37-5.21,0.73-7.86,1.06c-2.19,0.33-4.69,0.66-7.18,1l-3.38,0.45c-1.89,0.25-3.79,0.51-5.69,0.74
					c-1.94,0.24-3.89,0.48-5.86,0.72l-0.21,0.38l-9.62,0.78c-3.9,0.48-7.77,0.88-11.63,1.29l-0.75,0.08
					c-2.23,0.25-4.57,0.47-6.89,0.7l-2.85,0.28c-3.5,0.36-7.08,0.69-10.58,1.01l-1.5,0.13c-0.76,0.08-1.51,0.15-2.27,0.2
					c-4.7,0.44-9.81,0.84-14.9,1.22c-0.18,0.02-0.45,0.04-0.73,0.05l-2.84,0.21c-3.9,0.29-7.77,0.58-11.65,0.81
					c-3.16,0.21-6.46,0.41-9.77,0.6l-5.16,0.3c-3.96,0.21-7.76,0.39-11.58,0.57l-3.56,0.17c-5.05,0.23-10.08,0.4-15.11,0.57
					c-3.61,0.12-7.22,0.21-10.82,0.29l-4.18,0.1C1378.3,2301.44,1369.18,2301.53,1360.09,2301.53z M384.22,47.05l-0.67,0.52
					c-0.5,0.4-1.01,0.77-1.49,1.21l-1.67,1.51c-1.46,1.31-2.9,2.75-4.27,4.3c-3.44,3.84-6.87,7.68-10.23,11.5
					c-7.32,8.33-13.86,15.91-19.96,23.17c-10.53,12.56-20.03,24.27-29.01,35.76c-5.21,6.68-10.38,13.35-15.44,20.13
					c-4.77,6.35-9.5,12.74-14.13,19.14c-8.12,11.17-16.16,22.59-23.88,33.96c-22.68,33.43-44.01,68.19-63.41,103.3l-0.02,0.03
					c-2.93,5.29-5.85,10.63-8.72,15.97c-5.61,10.47-11.18,21.24-16.55,32c-3.79,7.53-7.47,15.01-11.08,22.58
					c-8.5,17.84-16.56,35.73-23.96,53.16c-1.57,3.65-3.07,7.23-4.53,10.84c-6.93,16.71-13.8,34.33-20.48,52.53
					c-3.06,8.39-6.04,16.83-8.94,25.31c-12.12,35.44-22.8,71.62-31.74,107.55c-1.17,4.58-2.27,9.09-3.32,13.6
					c-4.48,18.84-8.48,37.4-11.9,55.26c-0.91,4.66-1.79,9.21-2.59,13.8c-0.36,1.82-0.61,3.21-0.85,4.6l-0.42,2.37
					c-0.48,2.78-0.99,5.68-1.47,8.56c-3.45,20.27-6.45,40.84-8.92,61.18c-0.42,3.24-0.76,6.33-1.11,9.43
					c-0.72,6.08-1.37,12.03-1.96,17.96l-1,10.64c-2.15,23.1-3.69,46.61-4.57,69.86c-0.21,4.84-0.38,9.58-0.48,14.36l-0.28,11.21
					c-0.03,1.77-0.07,3.54-0.08,5.3c-0.08,3.99-0.1,7.71-0.12,11.46l-0.02,3.29c-0.04,4.83-0.01,9.67,0.01,14.51
					c0.03,4.86,0.1,9.74,0.19,14.59c0.07,4.95,0.2,9.82,0.32,14.69c0.13,4.85,0.31,9.68,0.51,14.57c0.19,5.06,0.41,10.04,0.65,15.03
					l0.18,3.25c0.21,3.69,0.41,7.36,0.64,11.08l0.07,1.04c0.31,4.85,0.62,9.7,0.99,14.55c0.7,9.57,1.52,19.16,2.41,28.69
					c0.94,9.85,2.01,19.7,3.15,29.6c1.19,10.09,2.48,20.06,3.82,29.59c1.9,13.55,3.82,25.97,5.86,37.99
					c1.95,11.48,4.22,23.78,6.93,37.61c123.71,621.28,667.29,1065.42,1298.36,1065.45c9.18,0,18.32-0.09,27.54-0.28l4.14-0.1
					c3.5-0.08,7-0.17,10.5-0.28c4.89-0.17,9.79-0.33,14.66-0.55l3.54-0.17c3.76-0.18,7.5-0.36,11.25-0.55l5.12-0.3
					c3.19-0.19,6.39-0.37,9.6-0.59c3.84-0.22,7.52-0.5,11.22-0.78l3.51-0.26c5.18-0.38,9.98-0.77,14.77-1.21l1.64-0.15
					c0.69-0.07,1.38-0.14,2.08-0.19c3.08-0.28,6.53-0.61,9.94-0.95l2.97-0.29c2.16-0.21,4.34-0.42,6.5-0.66l0.85-0.09
					c1.19-0.13,2.37-0.25,3.56-0.38l0.3-0.53l10.81-0.72c3.86-0.46,7.96-0.97,12.07-1.47c1.81-0.22,3.55-0.45,5.28-0.69l3.46-0.45
					c2.25-0.3,4.59-0.62,6.97-0.97c2.66-0.35,4.99-0.67,7.3-0.99l1.39-0.21c2.08-0.31,4.17-0.62,6.27-0.96l1.04-0.14
					c0.65-0.07,1.3-0.18,2-0.31l0.77-0.13c2.64-0.39,5.35-0.78,8.01-1.21c1.41-0.21,2.65-0.41,3.92-0.65l0.88-0.15
					c2.15-0.31,4.26-0.64,6.42-1.05l8.34-1.4c3.85-0.68,7.87-1.39,11.9-2.14l9.55-1.78c5.08-0.97,10.19-1.97,15.25-3l1.81-0.4
					c5.57-1.08,11.15-2.27,16.75-3.49c3.64-0.79,7.26-1.6,10.87-2.41l11.23-2.6c3.69-0.88,7.38-1.76,11.05-2.66l6.2-1.55
					c2.29-0.55,4.54-1.09,6.74-1.7l1.05-0.26c0.65-0.14,1.29-0.28,1.92-0.47l5.14-1.35c0.63-0.18,1.29-0.35,1.95-0.51
					c1.92-0.49,4-1.05,6.05-1.63l0.65-0.18c1.01-0.24,1.99-0.5,2.99-0.79l0.78-0.21c0.15-0.02,0.05,0-0.03,0.04l1.97-0.6
					c0.99-0.24,2-0.51,2.96-0.77c1.35-0.36,2.55-0.7,3.73-1.05l0.53-0.16c1.88-0.51,3.69-1.01,5.5-1.55l1.54-0.43
					c0.8-0.21,1.59-0.44,2.37-0.67l1.43-0.42c2.75-0.75,5.28-1.5,7.8-2.26l5.12-1.58c2.1-0.61,4.18-1.24,6.26-1.87l3.13-0.95
					c1.65-0.52,3.27-1.02,4.84-1.54l2.85-0.89c2.31-0.67,4.61-1.41,6.91-2.14l5.72-1.9c3.46-1.1,6.65-2.14,9.81-3.21
					c1.91-0.65,3.9-1.33,5.85-1.97l4.26-1.45c4.13-1.45,8.3-2.9,12.43-4.37l8.01-3.8l0.91,0.57c7.94-2.86,15.75-5.79,23.49-8.76
					c5.34-2.04,10.63-4.14,15.9-6.25c2.93-1.17,5.84-2.33,8.74-3.55l0.6-0.24c0.89-0.33,1.79-0.7,2.66-1.08l0.77-0.31
					c0.62-0.24,1.23-0.49,1.85-0.77l0.51-0.22c2.48-1.02,4.93-2.05,7.38-3.09l0.84-0.36c3.95-1.65,7.78-3.29,11.58-4.95
					c3.69-1.57,7.15-3.12,10.62-4.67l0.87-0.36c0.22-0.08,0.45-0.18,0.67-0.28l0.47-0.21c4.35-1.96,8.7-3.92,13.04-5.94l2.44-1.12
					c3.46-1.6,6.9-3.18,10.36-4.83c2.39-1.1,4.53-2.13,6.68-3.19c2.5-1.19,4.76-2.26,6.97-3.34l1.31-0.67
					c4.16-1.99,8.31-4.04,12.39-6.13c11.12-5.52,22.48-11.41,34.93-18.13c10.7-5.78,19.46-10.64,27.55-15.32l3.56-2.04
					c3.08-1.77,6.15-3.53,9.21-5.32l0.43-0.25c0.51-0.28,1.01-0.57,1.49-0.86l14.33-8.59c3.76-2.28,7.53-4.56,11.26-6.87
					c2.52-1.5,4.73-2.92,6.94-4.35c4.32-2.67,8.3-5.24,12.29-7.81l0.91-0.57c1.07-0.63,2.08-1.31,3.11-2
					c3.19-2.05,5.96-3.87,8.75-5.7l3.75-2.5c3.93-2.58,7.41-4.91,10.88-7.3l0.44-0.3c0.74-0.48,1.51-0.97,2.22-1.51l4.5-3.11
					c3.63-2.5,7.24-5,10.85-7.56c1.46-0.99,2.63-1.8,3.76-2.63c4.09-2.87,7.82-5.57,11.55-8.27l3.71-2.69
					c2.12-1.53,4.22-3.04,6.29-4.61c1.65-1.2,2.87-2.1,4.11-3.05l1.04-0.77c0.8-0.59,1.59-1.17,2.37-1.78l1.55-1.16
					c1.3-0.98,2.6-1.94,3.88-2.94c3.88-2.92,7.5-5.71,11.08-8.51l0.47-0.36c1.02-0.74,2-1.49,2.98-2.3l0.54-0.43
					c3.08-2.35,6.11-4.78,9.14-7.2l0.45-0.37c2.73-2.15,5.43-4.34,8.15-6.55l7.75-6.3c0.88-0.69,1.52-1.24,2.18-1.81l10.68-8.9
					c3.96-3.34,7.62-6.42,11.21-9.54l3.31-2.9c2.19-1.87,4.23-3.66,6.25-5.43l3.45-3.05c2.08-1.84,4.15-3.68,6.21-5.55
					c1.19-1.04,2.06-1.84,2.91-2.63l0.65-0.6c2.64-2.34,5.02-4.5,7.42-6.69l1.54-1.43c0.92-0.85,1.85-1.7,2.75-2.59l0.39-0.37
					c3.15-2.91,6.33-5.84,9.47-8.81l2.24-2.1c2.31-2.17,4.74-4.51,7.17-6.86c0.31-0.31,0.62-0.61,0.94-0.89l-0.39,0.39l1.72-1.69
					c0.75-0.72,1.49-1.44,2.21-2.17l0.59-0.58c1.8-1.68,3.53-3.41,5.25-5.13c1.74-1.69,3.31-3.22,4.87-4.8
					c1.09-1.12,2.07-2.1,3.07-3.02c0.18-0.2,0.43-0.45,0.71-0.72c4.13-4.12,8.21-8.26,12.25-12.49c1.74-1.74,3.19-3.25,4.62-4.73
					l0.59-0.61c2.33-2.43,4.71-4.91,7.07-7.44l1.3-1.37c3.53-3.69,6.98-7.42,10.46-11.19c0.41-0.43,0.8-0.84,1.17-1.3l1.34-1.45
					c0.6-0.58,1.15-1.19,1.69-1.83l0.42-0.48l4.74-5.19c1.58-1.73,3.18-3.49,4.72-5.3l0.72-0.8c1.15-1.2,2.26-2.47,3.35-3.71
					c2.13-2.43,3.97-4.54,5.77-6.62l0.34-0.38c0.71-0.78,1.44-1.58,2.09-2.39l4.04-4.65c1.59-1.85,3.19-3.7,4.75-5.57l4.2-4.94
					c1.65-1.95,3.29-3.91,4.92-5.87l0.06-0.11l4.91-5.91c0.97-1.12,1.68-2,2.4-2.88c15.5-18.92,30.64-38.5,45.05-58.27
					c6.94-9.44,14.31-19.83,22.58-31.84c3.14-4.63,6.36-9.39,9.55-14.16c3.46-5.16,6.85-10.35,10.21-15.51
					c3.08-4.76,6.07-9.48,9.07-14.21c28.58-45.31,54.79-93.14,77.88-142.14c4.78-10.08,9.72-20.96,15.15-33.3
					c7.38-16.92,14.44-34,20.95-50.74c2.2-5.67,4.38-11.38,6.51-17.11c4.61-12.37,8.65-23.67,12.35-34.56
					c0.38-1.06,0.63-1.91,0.89-2.77c0.26-0.86,0.47-1.67,0.65-2.47c2.22-9.07,2.41-17.76,0.64-26.2
					c-2.33-11.03-7.95-21.27-16.24-29.59c-6.19-6.16-13.79-11.09-21.94-14.2c-4.72-1.79-9.69-2.95-14.74-3.45l-1.59-0.16
					c-2.1-0.16-4.04-0.18-5.89-0.09l-0.62,0.02c-1.19,0.02-2.39,0.11-3.57,0.24c-8.19,0.89-16.2,3.6-23.81,8.07l-14.06,8.18
					c-6.06,3.49-12.14,6.88-18.24,10.21l-11.32,6.2c-3.37,1.84-6.72,3.59-10.07,5.35l-4.5,2.36
					c-93.31,48.77-192.37,86.61-294.49,112.48c-5.48,1.39-11.02,2.77-16.55,4.07c-5.46,1.31-11.01,2.64-16.61,3.89
					c-5.44,1.25-10.99,2.45-16.54,3.65c-33.75,7.22-68.01,13.21-101.9,17.84c-5.82,0.8-11.61,1.53-17.4,2.26l-1.3,0.16
					c-6.73,0.83-13.42,1.6-20.1,2.32l-0.06,0.01c-0.21,0.02-0.42,0.05-0.62,0.07c-6.7,0.73-13.34,1.39-20.01,1.99
					c-5.64,0.52-11.3,1-16.95,1.48l-1.8,0.15c-11.41,0.87-21.84,1.54-32.05,2.08c-8.31,0.48-16.65,0.89-25.02,1.17
					c-3,0.12-6.1,0.23-9.17,0.31c-4.93,0.16-9.99,0.28-14.99,0.34c-2.21,0.05-4.63,0.11-7.09,0.14l-4.45,0.04
					c-3.02,0.03-5.95,0.04-9.03,0.06c-76.98,0.21-154.51-6.13-230.34-19.05c-324.09-55.06-617.92-226.37-827.35-482.38
					C657,826.99,567.27,647.42,518.95,450.54l-2.12-8.7c-1.05-4.39-2.07-8.82-3.08-13.25c-1.92-8.52-3.83-17.01-5.6-25.55
					c-1.32-6.35-2.62-12.81-3.85-19.29c-1.11-5.68-2.2-11.43-3.21-17.24c-0.26-1.27-0.48-2.56-0.68-3.85
					c-0.77-4.28-1.5-8.58-2.22-12.92c-0.5-2.86-1-5.92-1.46-8.95c-0.8-4.72-1.55-9.73-2.29-14.74l-0.34-2.27
					c-0.61-4.05-1.16-7.98-1.7-11.92l-0.91-6.7c-1.31-9.76-2.65-20.79-4.02-33.27c-0.53-4.62-1.02-9.28-1.45-13.96
					c-0.44-4.36-0.87-8.87-1.23-13.4c-2.31-25.79-3.88-52.24-4.66-78.44c-0.14-4.68-0.26-9.29-0.33-13.91
					c-0.2-7.26-0.27-14.78-0.31-22.27c-0.03-4.32-0.04-8.63,0.01-12.94c-0.01-6.74,0.09-13.69,0.24-20.66
					c0.02-1.38,0.03-2.85-0.05-4.32c-1.42-31.31-24.5-50.44-46.75-55.57c-2.47-0.57-4.84-0.98-7.11-1.21l-2.71-0.16
					c-11.79-0.7-23,2.01-32.7,7.81L384.22,47.05z M1709.17,2219.85c0,0-0.01,0-0.01,0.01L1709.17,2219.85z M1803.93,2190.23
					L1803.93,2190.23L1803.93,2190.23z M2091.17,2046.7c-0.01,0.01-0.06,0.04-0.14,0.09L2091.17,2046.7z M2371.6,1796.87
					c-0.01,0.02-0.03,0.04-0.04,0.05L2371.6,1796.87z M184.76,293.11h0.05H184.76z"/>
			</g>
		</g>
		<g>
			<path class="st4" d="M2181.87,1184.04c0,0,120.14,159.97,150.65,273.19c44.59,165.47-43.51,293.59-176.46,333.73
				c-117.97,35.61-332.65-1.35-332.65-1.35s-113.25,54.63-188.93,32.96c-114.22-32.69-165.11-212.82-57.99-303.06
				c105.05-88.49,226-69.77,261.51-72.82c169.97-14.59,151.13-160.02,151.13-160.02L2181.87,1184.04z"/>
		</g>
		<g class="st31">
			<path class="st1" d="M2156.07,1790.95c-117.97,35.63-332.64-1.35-332.64-1.35s-113.29,54.62-188.95,32.96
				c-71.51-20.48-118.18-98.71-116.83-176.51c19.95,41.43,53.96,74.61,96.97,86.92c75.66,21.65,143.94-51.78,217.59-34.27
				c77.8,18.51,211.79,54.09,329.75,18.51c115.13-34.8,177.25-147.39,162.89-284.39c2.97,8.34,5.54,16.46,7.68,24.41
				C2377.11,1622.69,2289.01,1750.82,2156.07,1790.95z"/>
		</g>
		<g>
			<path class="st1" d="M1674.37,1845.07c-15.43,0-30.57-1.67-44.69-5.72c-60.62-17.35-109.59-74.37-124.75-145.24
				c-15.56-72.77,6.99-143.04,60.31-187.96c92.84-78.21,198.38-77.15,249.15-76.61c9.2,0.09,17.15,0.18,22.11-0.25
				c49.49-4.25,86.12-20.64,108.9-48.71c32.32-39.83,26.46-91.22,26.4-91.73l34.64-4.43c0.35,2.68,8.01,66.11-33.6,117.77
				c-28.96,35.95-73.83,56.78-133.35,61.88c-6.64,0.57-14.96,0.49-25.46,0.38c-50.12-0.46-143.34-1.47-226.29,68.4
				c-43.28,36.46-61.47,94.01-48.66,153.95c12.5,58.42,51.83,105.12,100.2,118.97c68.33,19.56,175.47-31.39,176.54-31.91l5.03-2.42
				l5.51,0.94c2.11,0.37,212.03,35.85,324.64,1.85c110.83-33.46,209.63-145.51,164.64-312.47
				c-29.27-108.62-146.57-265.68-147.75-267.25l27.93-20.97c4.99,6.64,122.52,163.99,153.54,279.13
				c43.75,162.34-33.67,308.32-188.27,355c-111.38,33.62-300.14,5.69-335.24,0.03C1806.62,1816.39,1738.16,1845.07,1674.37,1845.07z
				"/>
		</g>
		<g>
			<path class="st4" d="M1207.27,999.97c0,0-173.59,99.46-246.36,191.4c-106.36,134.37-76.08,286.88,30.18,376.3
				c94.29,79.34,306.1,130.24,306.1,130.24s82.44,94.94,160.52,104.95c117.84,15.11,235.78-130.23,173.05-255.47
				c-61.52-122.81-180.02-153.42-211.43-170.25c-150.36-80.59-75.58-206.72-75.58-206.72L1207.27,999.97z"/>
		</g>
		<g class="st31">
			<path class="st1" d="M1644.83,1653.81c-17.68,87.88-102.42,159.92-187.12,149.05c-78.11-10-160.53-104.96-160.53-104.96
				s-211.79-50.91-306.09-130.23c-91.6-77.06-126.7-201-66.54-319.8c-27.64,111.11,19.25,215.11,108.4,276.49
				c101.46,69.9,228.11,50.55,281.53,90.27c53.42,39.72,79.34,130,207.23,124.39C1569.23,1736.94,1612.65,1690.92,1644.83,1653.81z"
				/>
		</g>
		<g>
			<path class="st1" d="M1474.27,1821.38c-6.29,0-12.57-0.39-18.79-1.19c-74.8-9.59-150.01-87.27-167.71-106.61
				c-34.49-8.69-218.92-57.64-307.93-132.53c-123.56-103.98-136.98-268.67-32.63-400.5c74.01-93.51,244.17-191.58,251.37-195.72
				l17.36,30.31c-1.7,0.98-171.53,98.88-241.35,187.08c-107.31,135.58-60.85,277.56,27.73,352.1
				c90.09,75.81,296.85,126.12,298.93,126.62l5.42,1.31l3.67,4.22c0.79,0.9,79.08,90.05,149.56,99.09
				c49.94,6.37,104.51-20.96,139.07-69.69c35.46-49.99,41.49-110.04,16.15-160.63c-48.57-96.96-134.6-132.94-180.83-152.27
				c-9.7-4.06-17.37-7.27-23.23-10.41c-52.66-28.22-85.64-65.08-98.04-109.56c-17.81-63.9,14.31-119.14,15.69-121.46l30.04,17.81
				c-0.23,0.4-25.92,45.28-11.98,94.64c9.82,34.79,37.01,64.32,80.78,87.78c4.39,2.35,11.72,5.42,20.21,8.97
				c46.81,19.57,144.21,60.3,198.58,168.85c31.23,62.34,24.17,135.79-18.89,196.49C1589.71,1789.31,1531.21,1821.38,1474.27,1821.38
				z"/>
		</g>
		<g>
			<path class="st1" d="M1354.65,1351.82c-91.49-104.26-216.06-108.98-282.19-102.52c-84.76,8.29-143.05,39.63-151.87,54.85
				l-30.21-17.51c18.82-32.47,97.31-64.14,178.69-72.1c72.77-7.11,210.06-1.74,311.84,114.25L1354.65,1351.82z"/>
		</g>
		<g class="st2">
			<path class="st1" d="M1314.48,1567c-0.25,2.39-0.32,4.79-0.17,7.1C1314.19,1571.77,1314.25,1569.41,1314.48,1567z"/>
		</g>
		<g>
			<g>
				<path class="st4" d="M2342.22,979.31L2342.22,979.31c-7.32-0.29-13.03-6.45-12.74-13.78l14.9-381.97
					c0.29-7.32,6.45-13.03,13.78-12.74l0,0c76.83,3,136.69,67.71,133.7,144.55l-5.08,130.25
					C2483.77,922.45,2419.05,982.31,2342.22,979.31z"/>
				<path class="st1" d="M2347.78,982.56c-1.89,0-3.78-0.04-5.68-0.11l0,0c-9.04-0.35-16.11-7.99-15.76-17.03l14.9-381.98
					c0.35-9.05,8.25-16.2,17.04-15.76c78.44,3.06,139.77,69.36,136.71,147.8l-5.08,130.25c-1.48,38-17.67,73.14-45.59,98.97
					C2417.79,969.23,2383.7,982.56,2347.78,982.56z M2342.34,976.18c36.29,1.43,71.03-11.39,97.71-36.08
					c26.69-24.68,42.16-58.28,43.58-94.6l5.08-130.25c2.92-74.98-55.7-138.37-130.68-141.29c-5.48-0.16-10.3,4.15-10.52,9.73
					l-14.9,381.97C2332.39,971.24,2336.76,975.96,2342.34,976.18L2342.34,976.18z"/>
			</g>
			<g class="st31">
				<path class="st1" d="M2489.15,784.54l-2.37,61.09c-3,76.81-67.72,136.68-144.57,133.71c-7.32-0.28-13.02-6.49-12.74-13.81
					l3.93-101.54c1.88,4.71,6.38,8.09,11.76,8.34l9.06,0.33C2414.93,875.03,2468.11,838.13,2489.15,784.54z"/>
			</g>
			<g>
				<path class="st1" d="M2347.79,996.88c-2.08,0-4.17-0.04-6.25-0.12l0,0c-16.93-0.66-30.17-14.97-29.52-31.9l14.9-381.98
					c0.67-16.94,15.09-30.06,31.91-29.51c86.33,3.37,153.83,76.34,150.47,162.68l-5.08,130.26c-1.63,41.82-19.45,80.51-50.18,108.92
					C2424.85,982.22,2387.33,996.88,2347.79,996.88z M2347.09,961.96c0.22,0,0.44,0,0.67,0c30.73,0,59.88-11.39,82.56-32.38
					c23.88-22.08,37.72-52.15,38.99-84.64l5.08-130.26c2.56-65.69-47.67-121.43-112.74-126.18L2347.09,961.96z M2342.9,961.86
					C2342.9,961.86,2342.9,961.86,2342.9,961.86C2342.9,961.86,2342.9,961.86,2342.9,961.86L2342.9,961.86z"/>
			</g>
			<g>
				<path class="st4" d="M1097.34,521.65L1097.34,521.65c7.32,0.29,13.03,6.45,12.74,13.78l-14.9,381.97
					c-0.29,7.32-6.45,13.03-13.78,12.74h0c-76.83-3-136.69-67.71-133.7-144.55l5.08-130.25
					C955.79,578.51,1020.51,518.65,1097.34,521.65z"/>
				<path class="st1" d="M1081.94,933.29c-0.22,0-0.43,0-0.65-0.01c-78.44-3.06-139.77-69.36-136.71-147.8l5.08-130.25
					c1.48-38,17.67-73.14,45.59-98.96c27.92-25.82,64.2-39.23,102.22-37.74l0,0c9.04,0.35,16.11,8,15.76,17.04l-14.9,381.97
					C1097.98,926.35,1090.69,933.29,1081.94,933.29z M1091.79,524.68c-34.34,0-66.92,12.73-92.28,36.19
					c-26.69,24.68-42.16,58.28-43.58,94.6l-5.08,130.25c-2.92,74.98,55.7,138.37,130.68,141.29c5.68,0.23,10.3-4.15,10.52-9.73
					l14.9-381.97c0.21-5.58-4.15-10.31-9.73-10.52C1095.41,524.71,1093.6,524.68,1091.79,524.68z"/>
			</g>
			<g class="st31">
				<path class="st1" d="M1099.35,811.43l-4.14,105.97c-0.28,7.32-6.49,13.02-13.81,12.75c-40.33-1.59-76.02-20.16-100.37-48.6
					c-21.99-25.68-34.72-59.44-33.31-95.92l2.14-54.89c19.93,49,67.22,84.45,123.55,86.65l13.94,0.54
					C1092.45,818.12,1096.88,815.47,1099.35,811.43z"/>
			</g>
			<g>
				<path class="st1" d="M1081.94,947.62c-0.41,0-0.81-0.01-1.21-0.02c-86.33-3.37-153.83-76.34-150.47-162.68l5.08-130.26
					c1.63-41.82,19.45-80.5,50.18-108.92c30.73-28.43,70.79-43.18,112.5-41.54l0,0c16.93,0.66,30.17,14.97,29.52,31.9l-14.9,381.98
					C1111.99,934.61,1098.34,947.62,1081.94,947.62z M1091.8,539c-30.72,0-59.88,11.39-82.56,32.38
					c-23.88,22.08-37.72,52.15-38.99,84.64l-5.08,130.26c-2.56,65.69,47.67,121.43,112.74,126.18L1092.47,539
					C1092.25,539,1092.03,539,1091.8,539z M1096.65,539.1c0,0,0.01,0,0.01,0C1096.66,539.1,1096.66,539.1,1096.65,539.1z"/>
			</g>
			<g>
				<circle class="st4" cx="1719.86" cy="750.48" r="651.41"/>
				<path class="st1" d="M1720.35,1405.07c-23.91,0-48.02-1.31-72.32-3.99c-358.74-39.61-618.37-363.69-578.76-722.43
					c19.19-173.78,104.9-329.69,241.35-439c136.45-109.31,307.3-158.94,481.08-139.76c173.78,19.19,329.68,104.9,439,241.35
					c109.31,136.45,158.95,307.3,139.76,481.08C2333.53,1156.75,2049.34,1405.07,1720.35,1405.07z M1718.61,102.13
					c-146.67,0-287.94,49.38-404.07,142.42c-135.14,108.26-220.03,262.68-239.03,434.79c-39.23,355.3,217.91,676.27,573.21,715.5
					c24.05,2.66,47.97,3.96,71.63,3.96c325.86,0.01,607.3-245.92,643.87-577.17c19-172.11-30.15-341.33-138.42-476.47
					S1963.12,125.13,1791,106.13C1766.79,103.45,1742.62,102.13,1718.61,102.13z"/>
			</g>
			<g class="st31">
				<path class="st1" d="M2371.03,731.66c0.89,29.73-0.32,59.88-3.68,90.32c-39.53,357.57-361.4,615.45-718.99,576
					c-357.58-39.53-615.45-361.4-576-718.99c1.13-10.28,2.5-20.55,4.12-30.63c8.85,320,252.5,592.53,579.68,628.66
					C2003.45,1315.35,2317.02,1073.22,2371.03,731.66z"/>
			</g>
			<g>
				<path class="st1" d="M1720.36,1419.39c-24.43,0-49.07-1.33-73.91-4.08c-366.59-40.48-631.9-371.65-591.43-738.24
					c19.61-177.58,107.2-336.9,246.63-448.61c139.45-111.71,314.06-162.41,491.61-142.82c177.58,19.61,336.9,107.2,448.61,246.63
					c111.7,139.44,162.43,314.03,142.82,491.61C2346.96,1165.64,2056.55,1419.39,1720.36,1419.39z M1718.63,116.45
					c-143.42,0-281.58,48.29-395.14,139.27c-132.16,105.87-215.17,256.87-233.75,425.18c-38.36,347.45,213.1,661.33,560.55,699.69
					c23.52,2.6,46.91,3.87,70.04,3.87c318.66,0.01,593.88-240.48,629.64-564.41c18.58-168.31-29.49-333.78-135.36-465.94
					s-256.87-215.17-425.19-233.75C1765.75,117.75,1742.12,116.45,1718.63,116.45z"/>
			</g>
			<g>
				<path class="st1" d="M2363.43,838.37c-12.07,126.9-64.48,240.79-144.2,331.56c-59.77,68.05-289.05,175.29-557.39,152.19
					c-248.8-21.42-462.37-175.48-508.23-253.58c-61.18-104.18-91.16-225.91-79.08-352.81c31.95-335.81,333.71-447.57,689.65-413.71
					S2395.38,502.56,2363.43,838.37z"/>
			</g>
			<g>
				<path class="st1" d="M1738.58,1342.89c-25.54,0-51.62-1.06-78.23-3.36c-257.97-22.2-473.57-180.02-521.79-262.13
					c-65.29-111.19-93.44-236.82-81.41-363.31c15.69-164.92,93.93-285.79,232.53-359.26c120.85-64.05,285.51-88.31,476.15-70.18
					c190.65,18.14,347.77,73.02,454.37,158.71c122.27,98.29,176.3,231.74,160.61,396.67l0,0
					c-12.04,126.48-63.37,244.55-148.46,341.43C2178.84,1242.38,1986.13,1342.89,1738.58,1342.89z M1649.27,313.99
					c-212.5,0-524.65,59.64-557.36,403.41c-11.33,119.13,15.21,237.5,76.76,342.31c43.7,74.41,252.1,224.14,494.67,245.02
					c268.88,23.11,489.52-85.69,542.77-146.32c80.21-91.33,128.6-202.57,139.94-321.69c14.51-152.49-35.2-275.67-147.73-366.13
					c-101.26-81.4-251.96-133.67-435.8-151.16C1730.9,316.41,1692.1,313.99,1649.27,313.99z M2363.43,838.37h0.05H2363.43z"/>
			</g>
			<g class="st9">
				
					<ellipse transform="matrix(0.2707 -0.9627 0.9627 0.2707 830.1 2641.3645)" class="st4" cx="2158.32" cy="772.83" rx="115.28" ry="83.53"/>
			</g>
			<g class="st9">
				
					<ellipse transform="matrix(0.4011 -0.916 0.916 0.4011 311.3339 2457.1279)" class="st4" cx="2034.82" cy="990.46" rx="52.91" ry="45.41"/>
			</g>
			<g class="st2">
				<path class="st8" d="M2267.89,513.17c71.63,82.67,108.34,190.31,95.53,325.19c-12.08,126.92-64.5,240.81-144.18,331.59
					c-59.79,68.05-289.09,175.28-557.42,152.21c-94.75-8.13-184.35-35.53-261.57-70.67c330.44,21.33,609.86-110.48,683.98-194.88
					c101.19-115.21,167.69-259.78,182.99-420.8C2271.35,592.76,2271.41,551.9,2267.89,513.17z"/>
			</g>
			<g>
				<path class="st1" d="M2336.02,556.08c-4.3,0-8.61-1.58-11.98-4.77c-0.25-0.23-0.57-0.56-0.81-0.81l-1.39-1.47l-1.01-1.75
					c-94.53-163.32-297-271.09-555.51-295.69c-259.91-24.72-479.16,45.79-601.46,193.47l-1.54,1.64c-7.01,6.62-18.07,6.3-24.69-0.71
					c-6.28-6.65-6.32-16.93-0.33-23.63c129.86-156.46,359.9-231.38,631.33-205.55c269.46,25.64,481.49,139.39,581.94,312.14
					c4.39,6.62,3.83,15.62-1.86,21.65C2345.28,554.24,2340.66,556.08,2336.02,556.08z M2335.95,538.54h0.05H2335.95z
					 M1150.18,433.85l0.15,0.15L1150.18,433.85z"/>
			</g>
			<g class="st9">
				<path class="st4" d="M1200.25,929.28c0,0-72.49-341.17,118.61-456.2s447.91-90.05,440.33-74.15c0,0-290.92,41.79-423.57,256.01
					C1233.34,820.13,1200.25,929.28,1200.25,929.28z"/>
			</g>
		</g>
		<g>
			<path class="st4" d="M2026.93,2612.12c-158.61-42.26-123.2-349.92-323.38-226.5l-30.21-58.28l-1.31-2.49
				c0,0,2.14-6.11,6.37-16.94c0.04-0.09,0.04-0.13,0.04-0.13s0-0.04,0.04-0.13c31.87-81.77,181.45-427.16,426.85-408.56
				c158.79,12.01,153.15,186.99,153.15,186.99s88.71-19.82,139.05,35.54c15.98,17.51,28.07,42.48,32.31,78.02
				C2454.82,2408.72,2200.73,2658.44,2026.93,2612.12z"/>
		</g>
		<g class="st31">
			<path class="st1" d="M2026.93,2612.12c-158.61-42.26-123.2-349.92-323.38-226.5l-30.21-58.28c2.88-11.09,4.8-18.42,5.06-19.43
				c0.04-0.09,0.04-0.13,0.04-0.13s0-0.04,0.04-0.13c3.01-5.24,109.45-189.92,255.27-152.19c65.84,17.03,76.23,61.86,82.86,95.39
				c10.43,52.61-31.48,87.8-32.53,134.03c-0.87,39.9,94.22-105.39,129.58-141.72c96.14-98.76,185.37-149.71,283.87-121.55
				c15.98,17.51,28.07,42.48,32.31,78.02C2454.82,2408.72,2200.73,2658.44,2026.93,2612.12z"/>
		</g>
		<g>
			<path class="st1" d="M1663.78,2322c10.14-37.74,24.15-73.65,40.11-108.99c16.07-35.22,34.4-69.51,55.31-102.35
				c20.99-32.77,44.11-64.38,70.04-93.9c25.88-29.52,54.91-56.85,87.84-79.65c32.83-22.75,69.82-40.98,109.75-50.31l15.11-2.76
				c5.05-0.84,10.05-2.05,15.19-2.26l15.33-1.23c2.56-0.16,5.11-0.49,7.67-0.49l7.68,0.15c20.36-0.18,41.34,2.13,61.76,8.06
				c20.43,5.8,40.06,15.98,57.01,29.45c16.85,13.61,30.82,30.59,41.1,49.05c10.53,18.4,17.59,38.18,22.51,58.14
				c2.4,10.01,4.22,20.11,5.5,30.28c0.63,5.09,1.14,10.19,1.47,15.35c0.34,5.29,0.56,10.02,0.47,16.14l-23.32-19.31
				c4.63-0.97,8.04-1.47,11.98-2.03c3.81-0.49,7.6-0.92,11.4-1.21c7.6-0.6,15.2-0.88,22.85-0.7c15.28,0.36,30.74,2.17,46.01,6.36
				c15.25,4.05,30.3,10.62,43.84,19.97c13.57,9.26,25.42,21.39,34.27,35.14c8.96,13.7,15.12,28.72,19.2,43.81
				c3.98,15.14,5.84,30.34,6.73,45.31c1.68,30.09-1.79,60.04-8.85,88.71c-14.28,57.46-42,109.89-76.54,156.3
				c-34.76,46.35-76.74,87.22-125.22,119.65c-24.27,16.14-50.25,30.1-78.02,40.55c-27.73,10.3-57.37,17.6-88.17,17.66
				c-7.69-0.11-15.37-0.02-23.08-1.14c-3.85-0.47-7.71-0.74-11.54-1.42l-11.45-2.43l-5.72-1.25l-5.71-1.86
				c-3.79-1.28-7.62-2.47-11.36-3.88c-7.24-3.42-14.72-6.46-21.34-10.9c-7-3.91-13.11-8.9-19.38-13.68
				c-2.99-2.52-5.78-5.22-8.66-7.84c-2.95-2.58-5.59-5.37-8.15-8.22c-10.68-11.12-19.44-23.34-27.6-35.64
				c-16.1-24.76-28.62-50.48-41.03-75.34c-12.42-24.73-24.67-49.18-40.15-68.74c-7.78-9.59-16.4-17.62-25.79-22.75
				c-9.38-5.19-19.65-7.42-30.81-7.14c-22.6,1.5-46.9,12.03-69.35,25.84l-0.44,0.27c-8.22,5.06-18.97,2.49-24.03-5.72
				s-2.5-18.97,5.72-24.03c0.11-0.07,0.3-0.18,0.42-0.25l19.2-11.08c6.85-3.19,13.44-6.7,20.55-9.56c7.3-2.61,14.28-5.68,22.21-7.31
				l5.8-1.43c1.91-0.52,3.87-0.93,5.95-1.11l12.27-1.42c16.71-0.83,34.65,2.75,49.74,11c15.19,8.14,27.15,19.73,36.98,31.67
				c19.31,24.26,32.04,50.18,44.86,75.09c12.63,24.96,24.83,49.41,39.34,71.37c7.31,10.86,14.96,21.38,23.71,30.31
				c2.11,2.34,4.27,4.6,6.61,6.59c2.3,2.04,4.52,4.21,6.87,6.17c4.88,3.58,9.58,7.5,14.84,10.31c4.98,3.4,10.57,5.44,15.9,8.05
				c2.79,1.01,5.65,1.83,8.46,2.79l4.23,1.4l4.52,0.92l9.03,1.89c3.03,0.52,6.16,0.67,9.23,1.04c6.12,0.92,12.42,0.73,18.67,0.81
				c25.11-0.15,50.61-6.2,75.01-15.35c24.45-9.22,47.95-21.8,70.1-36.56c44.28-29.64,83.41-67.71,115.51-110.61
				c31.95-42.93,57.21-91.27,69.81-142.34c6.25-25.48,9.17-51.58,7.71-77.22c-0.78-12.87-2.36-25.44-5.49-37.32
				c-3.23-11.82-7.87-22.88-14.11-32.59c-12.37-19.53-32.13-32.81-55.53-39.13c-11.63-3.28-24.07-4.84-36.66-5.2
				c-6.3-0.19-12.65,0.03-18.96,0.49c-3.16,0.22-6.3,0.57-9.41,0.95c-2.97,0.39-6.45,0.94-8.65,1.39l-23.79,4.85l0.47-24.16
				c0.07-3.43-0.07-8.25-0.34-12.48c-0.26-4.37-0.68-8.77-1.19-13.16c-1.06-8.78-2.59-17.5-4.6-26.07
				c-4.12-17.08-10-33.66-18.41-48.46c-4.1-7.47-8.85-14.46-14.19-20.87c-5.2-6.56-11.25-12.25-17.58-17.56
				c-12.91-10.29-27.72-18.23-44.02-22.93c-16.27-4.8-33.59-6.92-51.41-6.82l-6.63-0.2c-2.21-0.02-4.41,0.29-6.61,0.42l-13.22,0.99
				c-4.43,0.1-8.75,1.2-13.12,1.89l-13.08,2.29c-34.61,7.93-67.45,23.75-97.4,44.27c-30.01,20.54-57.21,45.76-81.77,73.53
				c-24.63,27.73-46.85,57.85-67.27,89.24c-40.77,62.79-76.05,129.94-108.24,198.2l-0.13,0.28c-2.06,4.37-7.28,6.24-11.65,4.18
				C1664.61,2330.35,1662.7,2326.02,1663.78,2322z"/>
		</g>
		<g>
			<path class="st1" d="M2075.86,2608.89c25.63-8.82,49.46-15.41,73.69-24.45c23.95-9.36,46.82-22.04,68.4-36.65
				c43.07-29.45,81.44-66.41,112.98-108.24c15.85-20.85,30.01-42.96,42-66.08c11.97-23.11,22.05-47.15,28.85-71.96
				c6.86-24.76,11-50.14,10.96-75.42c-0.13-25.31-3.43-50.47-13.66-71.64l-0.04-0.07c-4.2-8.69-0.56-19.13,8.13-23.33
				c8.49-4.1,18.68-0.68,23.05,7.59c7.25,13.76,12.14,28.39,15.23,43.06c1.47,7.34,2.7,14.74,3.21,22.01l1,10.96
				c0.35,3.65,0.23,7.31,0.36,10.96c0.59,29.26-3.31,58.32-10.77,86.15c-15.04,55.76-42.87,106.53-77.11,151.54
				c-17.24,22.48-36.35,43.45-56.98,62.83c-20.62,19.38-42.89,37.08-66.79,52.51c-23.89,15.42-49.29,28.83-76.38,38.75
				c-13.61,4.75-27.46,9.26-42.02,10.81c-14.38,2.04-29.36,1.5-43.67-1.87c-4.85-1.14-7.86-6-6.71-10.85
				c0.73-3.11,2.98-5.46,5.79-6.45L2075.86,2608.89z"/>
		</g>
		<g>
			<path class="st69" d="M2088.77,2616.9c-8.99,0.8-18.11-0.09-26.65-3.01c-38.67-13.26-70.78-51.46-32.7-153.96
				c39.24-105.61,188.95-308.08,327.15-320.5c36.24-3.26,68.79,23.45,73.21,59.57c0.03,0.21,0.05,0.42,0.08,0.64
				C2451.99,2384.94,2254.88,2602.21,2088.77,2616.9z"/>
		</g>
		<g class="st47">
			<path class="st4" d="M2401.82,2358.81c9.26-34.01,12.57-68.33,8.34-101.64c-0.04-0.22-0.04-0.44-0.09-0.66
				c-4.67-36.11-39.25-62.82-77.67-59.55c-93.08,7.86-191.01,92.25-260.86,179.83c64.18-104.3,178.04-227.77,285-237.37
				c36.28-3.27,68.81,23.45,73.22,59.55c0.04,0.22,0.04,0.44,0.09,0.66C2436.09,2251.89,2424.87,2306.73,2401.82,2358.81z"/>
		</g>
		<g class="st31">
			<path class="st1" d="M2377.81,2405.22c-66.54,112.03-183.98,202.36-289.06,211.66c-8.95,0.83-18.07-0.09-26.63-3.01
				c-38.68-13.23-70.77-51.43-32.7-153.94c6.68-17.99,16.55-38.73,29.03-60.9c6.51,3.36,56.57,85.59,153.84,86.89
				C2289.42,2486.94,2325.29,2447.58,2377.81,2405.22z"/>
		</g>
		<g>
			<path class="st1" d="M2082.43,2634.64c-9.05,0-17.76-1.42-25.99-4.24c-24.48-8.39-42.01-23.44-52.09-44.72
				c-14.99-31.63-12.06-75.98,8.69-131.84c40.39-108.7,193.43-318.46,341.96-331.81c45.16-4.07,86.57,29.51,92.11,74.85l0.08,0.68
				c10.46,87.58-24.78,188.62-96.69,277.22c-73.63,90.7-173.33,151.82-260.19,159.51l0,0
				C2087.66,2634.53,2085.03,2634.64,2082.43,2634.64z M2362.49,2156.62c-1.45,0-2.9,0.06-4.37,0.2
				c-126.72,11.4-274.25,206.67-312.34,309.19c-17.1,46.03-20.52,82.24-9.87,104.72c5.98,12.62,16.4,21.34,31.86,26.64
				c5.94,2.03,12.47,2.76,19.45,2.13l0,0c77.77-6.88,168.26-63.1,236.15-146.73c66-81.3,98.48-172.81,89.14-251.06l17.27-2.71
				l-17.33,2.12C2409.34,2175.77,2387.41,2156.62,2362.49,2156.62z"/>
		</g>
		<g>
			<path class="st1" d="M1838.1,2394.84c-6.88,0-13.41-4.1-16.17-10.87c-25.74-63.08-33.17-289.61,102.1-450.19
				c6.21-7.38,17.23-8.33,24.6-2.1c7.38,6.21,8.32,17.23,2.1,24.6c-123.92,147.1-119.18,358.84-96.47,414.5
				c3.65,8.93-0.64,19.12-9.57,22.76C1842.53,2394.42,1840.29,2394.84,1838.1,2394.84z"/>
		</g>
		<g>
			<path class="st1" d="M1974.06,2387.88c8.65-35.91,21.84-69.6,37.85-102.52c15.9-32.88,35.46-64.19,58.53-93.12
				c23.12-28.83,50.04-55.26,81.08-76.53c15.39-10.79,31.98-19.92,49.03-27.99l13.01-5.6c4.39-1.72,8.88-3.23,13.31-4.84
				c8.79-3.47,18.06-5.49,27.11-8.09c9.26-2.66,18.92,2.69,21.58,11.95c2.59,9-2.4,18.39-11.19,21.34l-1.33,0.44
				c-15.94,5.33-31.86,10.67-46.85,18.28c-15.1,7.25-29.86,15.39-43.62,25.14c-13.85,9.58-27.32,19.88-39.8,31.45
				c-12.64,11.37-24.65,23.55-35.89,36.52c-11.33,12.9-21.88,26.54-32,40.57c-10.02,14.11-19.35,28.77-28.29,43.72
				c-8.9,14.98-17.07,30.43-24.73,46.16c-7.74,15.61-14.84,31.93-20.98,47.87l-0.16,0.42c-1.73,4.5-6.79,6.74-11.29,5.01
				C1975.27,2396.48,1973.04,2392.08,1974.06,2387.88z"/>
		</g>
		<g>
			<path class="st4" d="M1263.12,2310.75l-41.48,53.09l-0.65,0.87c-174.15-158.09-195.77,150.84-359.44,163.28
				c-177.17,13.45-378.21-271.21-322.64-471.82c0.22-0.92,0.48-1.83,0.79-2.79c0.48-1.62,0.96-3.23,1.44-4.8
				c11.31-36.06,29.03-58.98,49.2-73.08c59.42-41.65,140.1-7.12,140.1-7.12s26.59-173.02,184.89-155.69
				c241.43,26.41,326.04,384.15,343.9,476.45C1261.94,2302.89,1263.12,2310.75,1263.12,2310.75z"/>
		</g>
		<g>
			<path class="st1" d="M2320.33,1683.87l-34.45-0.28c0.62-73.65-22.09-133.11-67.48-176.74c-97.16-93.38-267.79-86.32-269.49-86.25
				l-1.69-34.41c7.56-0.38,186.9-7.98,294.92,95.7C2294.72,1532.35,2321.03,1600.3,2320.33,1683.87z"/>
		</g>
		<g>
			<path class="st1" d="M2185.16,2551.22c-100.9,0-169.58-50.49-173.33-53.31c-6.62-4.98-7.95-14.38-2.98-21.01
				c4.98-6.62,14.38-7.94,20.99-2.99c1.62,1.21,110.68,80.36,250.42,30.5c7.81-2.79,16.39,1.28,19.17,9.08
				c2.79,7.8-1.28,16.39-9.08,19.17C2252.73,2546.09,2217.3,2551.22,2185.16,2551.22z"/>
		</g>
		<g>
			<path class="st1" d="M2246.39,2424.11c-95.24,0-175.92-30-181.01-31.92c-7.74-2.94-11.64-11.59-8.7-19.34s11.58-11.64,19.34-8.72
				c1.78,0.67,179.31,66.48,310.29-0.13c7.38-3.75,16.42-0.82,20.17,6.57c3.75,7.38,0.82,16.42-6.57,20.17
				C2350.64,2415.81,2296.5,2424.11,2246.39,2424.11z"/>
		</g>
		<g>
			<path class="st1" d="M2313.07,2303.51c-78,0-158.21-19.77-163.65-21.13c-8.03-2.02-12.91-10.17-10.89-18.2
				c2.01-8.04,10.13-12.93,18.19-10.9c56.41,14.14,213.61,40.59,262.89-6.13c6.01-5.7,15.5-5.45,21.21,0.57
				c5.7,6.01,5.44,15.5-0.57,21.21C2412.37,2295.35,2363.18,2303.51,2313.07,2303.51z"/>
		</g>
		<g class="st31">
			<path class="st1" d="M1263.12,2310.75l-41.48,53.09l-0.57-0.22c-173.85-158.35-196.03,150.53-359.7,162.72
				c-176.47,13.1-376.25-269.72-322.46-470.16c0.22-0.92,0.48-1.83,0.79-2.79c0.61-2.36,1.31-4.72,2.05-7.03
				c10.74-34.1,27.29-56.41,46.23-70.68c0.79-0.09,1.57-0.13,2.36-0.17c100.85-8.21,178.48,58.24,254.09,172.19
				c28.03,42.26,94.56,202.62,101.07,163.28c7.55-45.67-27.11-87.97-7.12-137.74c12.7-31.74,31.22-73.87,99.06-78.41
				c142.37-9.56,213.01,170.4,221.79,194.32C1261.94,2302.89,1263.12,2310.75,1263.12,2310.75z"/>
		</g>
		<g>
			<path class="st1" d="M1254.48,2312.05c-19.19-72.99-41.58-145.46-70.16-214.64c-14.4-34.56-30.86-68.16-50.07-99.85
				c-19.14-31.7-41.34-61.36-67.09-86.89l-9.72-9.49c-3.28-3.11-6.84-5.86-10.23-8.82c-3.48-2.84-6.77-5.96-10.38-8.59l-10.87-7.85
				l-5.4-3.97c-1.83-1.27-3.78-2.34-5.66-3.52l-11.37-6.96c-3.69-2.52-7.86-4.06-11.77-6.14l-11.91-5.85l-12.37-4.68
				c-4.14-1.5-8.17-3.38-12.49-4.3l-12.75-3.43c-2.14-0.53-4.23-1.25-6.4-1.64l-6.53-1.04c-17.43-3.42-34.78-4.58-51.59-2.92
				c-16.84,1.54-32.78,6.62-47.4,14.17c-7.22,3.96-14.26,8.36-20.63,13.78c-6.48,5.25-12.51,11.19-18,17.72
				c-11.15,12.9-20.17,28.07-27.56,44.08c-3.62,8.05-6.9,16.33-9.71,24.76c-1.39,4.22-2.7,8.47-3.83,12.73
				c-1.13,4.14-2.22,8.81-2.88,12.31l0,0l-3.78,21.76l-20.35-8.36c-2.18-0.89-5.5-2.08-8.38-3.03c-3.02-0.96-6.06-1.89-9.16-2.71
				c-6.17-1.65-12.43-3.05-18.71-4.05c-12.55-2.01-25.21-2.81-37.43-1.74c-24.52,1.86-46.99,11.43-63.14,28.71
				c-8.13,8.56-14.86,18.78-20.27,29.98c-5.33,11.28-9.23,23.49-12.37,36.1c-6.19,25.18-8.1,51.58-6.61,77.94
				c3.06,52.86,19.12,105.25,42.77,153.51c23.8,48.26,55.41,93.02,93.69,130.45c19.16,18.65,40.06,35.42,62.57,49.06
				c22.48,13.53,46.61,24.3,71.56,29.02c6.24,1.06,12.46,2.39,18.72,2.6c3.12,0.19,6.25,0.61,9.37,0.64l9.33-0.23l4.67-0.09
				l4.48-0.62c2.98-0.44,5.99-0.74,8.96-1.24c5.8-1.63,11.76-2.65,17.34-5.13c5.77-1.85,11.15-4.89,16.67-7.57
				c2.69-1.52,5.29-3.27,7.95-4.88c2.69-1.55,5.25-3.4,7.76-5.34c10.31-7.28,19.78-16.29,28.97-25.7
				c18.3-19.06,34.74-40.94,51.66-63.21c17.1-22.18,34.27-45.33,57.55-65.61c11.78-9.92,25.56-19.08,41.84-24.32
				c16.21-5.37,34.38-5.68,50.6-1.89l11.77,3.58c2.01,0.54,3.86,1.3,5.64,2.15l5.44,2.44c7.49,3.02,13.8,7.28,20.51,11.14
				c6.48,4.08,12.32,8.71,18.49,13.07l16.91,14.33c7.36,6.24,8.27,17.26,2.03,24.62s-17.26,8.27-24.62,2.03
				c-0.16-0.13-0.31-0.27-0.46-0.4l-0.43-0.4c-19.44-17.81-41.29-32.77-63.33-38.58c-10.97-2.42-21.6-2.19-31.91,1.16
				c-10.32,3.29-20.36,9.65-29.86,17.65c-18.96,16.41-35.58,38.2-52.41,60.18c-16.83,22.11-33.92,45.02-54.27,66.25
				c-10.27,10.52-21.1,20.84-33.57,29.72c-3.02,2.31-6.12,4.53-9.47,6.5c-3.3,2.02-6.51,4.14-9.89,6.04
				c-6.99,3.5-13.84,7.23-21.37,9.74c-7.26,3.11-15.09,4.67-22.74,6.67c-3.89,0.69-7.83,1.13-11.75,1.68l-5.89,0.76l-5.79,0.16
				l-11.58,0.26c-3.85-0.05-7.66-0.5-11.49-0.75c-7.71-0.33-15.18-1.84-22.69-3.15c-29.97-5.75-57.58-18.22-82.79-33.38
				c-25.22-15.29-48.08-33.69-68.88-53.93c-41.5-40.61-75.14-88.34-100.68-140.09c-25.32-51.77-42.83-108.16-46.28-166.92
				c-1.66-29.3,0.43-59.17,7.55-88.21c3.6-14.45,8.18-28.91,14.8-42.89c6.71-13.92,15.4-27.34,26.5-39.01
				c11.02-11.73,24.64-21.35,39.43-27.88c14.77-6.64,30.54-10.32,46.1-11.52c15.59-1.34,30.98-0.32,45.95,2.08
				c7.5,1.2,14.87,2.85,22.17,4.8c3.65,0.97,7.28,2.07,10.91,3.23c3.74,1.25,7,2.36,11.28,4.12l-24.13,13.4l0-0.02
				c0.94-5.92,1.95-10.56,3.18-15.67c1.19-5,2.55-9.92,4.02-14.81c2.96-9.77,6.45-19.38,10.56-28.78
				c8.3-18.75,18.67-36.94,32.24-53.2c13.33-16.35,30.05-30.63,49.05-41.11c19.09-10.31,40.34-16.72,61.54-18.76
				c21.22-2.16,42.33-0.64,62.38,3.22l7.61,1.24c2.52,0.46,4.98,1.26,7.48,1.88l14.91,3.99c5.04,1.14,9.75,3.23,14.58,4.98
				l14.41,5.46c4.65,2.15,9.22,4.47,13.83,6.71c4.53,2.38,9.36,4.27,13.61,7.09l13.08,7.96c2.16,1.35,4.39,2.61,6.49,4.05l6.16,4.48
				l12.24,9.06c4.05,3.05,7.7,6.54,11.56,9.79c3.77,3.35,7.72,6.53,11.33,10.02l10.66,10.64c28.15,28.62,51.59,60.94,71.51,94.81
				c19.99,33.88,36.76,69.27,51.29,105.38c14.61,36.1,26.11,73.25,35.56,110.79c9.12,37.68,16.31,75.56,19.31,114.53
				c0.37,4.82-3.23,9.03-8.05,9.4c-4.28,0.33-8.09-2.48-9.14-6.5L1254.48,2312.05z"/>
		</g>
		<g>
			<path class="st1" d="M1107.74,2341.18c-1.72,0-3.46-0.25-5.19-0.79c-9.21-2.86-14.36-12.65-11.49-21.86
				c84.29-271.12-111.53-471.34-113.52-473.33c-6.81-6.82-6.82-17.88,0-24.69c6.81-6.82,17.85-6.83,24.68-0.02
				c2.2,2.19,54.28,54.68,95.64,143.56c38.28,82.26,73.96,212.32,26.54,364.86C1122.08,2336.38,1115.18,2341.18,1107.74,2341.18z"/>
		</g>
		<g>
			<path class="st1" d="M937.26,2318.86c-2.99-16.81-6.94-34.17-11.6-50.96c-4.68-16.87-9.77-33.59-15.74-49.97
				c-5.98-16.37-12.58-32.46-19.7-48.24c-7.26-15.72-15.29-31.02-24.07-45.78c-17.74-29.38-38.14-56.95-62.25-80.55
				c-23.7-24.05-51.33-43.52-81.01-59.25l-0.89-0.47c-8.52-4.51-11.76-15.08-7.25-23.59c4.45-8.39,14.78-11.65,23.23-7.43
				c8.42,4.21,17.15,7.92,25.16,12.93c4.06,2.4,8.19,4.7,12.2,7.2l11.73,7.94c15.27,11.06,29.91,23.08,43.05,36.51
				c13.11,13.44,25.42,27.65,36.11,42.93c10.84,15.15,20.77,30.91,29.23,47.34c17.16,32.73,30.92,66.94,40.47,102.18
				c9.77,35.25,16.58,70.77,18.73,107.62c0.28,4.81-3.4,8.95-8.21,9.23c-4.47,0.26-8.34-2.89-9.1-7.19L937.26,2318.86z"/>
		</g>
		<g>
			<path class="st69" d="M817.62,2524.86c8.79,2.04,17.95,2.43,26.81,0.72c40.14-7.75,77.25-41.12,53.78-147.92
				c-24.18-110.03-144.3-331.35-279.43-362.86c-35.44-8.26-71.39,13.66-80.78,48.82c-0.06,0.21-0.11,0.41-0.16,0.62
				C490.16,2244.67,655.16,2487.23,817.62,2524.86z"/>
		</g>
		<g class="st47">
			<path class="st4" d="M883.46,2328.03c-53.61-106.83-145.6-226.81-245.1-249.73c-36.46-8.43-73.35,13.36-82.86,48.51
				c-0.09,0.22-0.13,0.39-0.17,0.61c-11.05,41.13-10.65,85.57-1.53,130.06c-23.97-64.66-32.05-132.46-15.98-193.23
				c0.09-0.22,0.13-0.44,0.17-0.61c9.39-35.19,45.36-57.11,80.77-48.85C735.77,2042.07,841.51,2211.6,883.46,2328.03z"/>
		</g>
		<g class="st31">
			<path class="st1" d="M844.43,2525.59c-8.86,1.7-18.03,1.31-26.81-0.74c-92.95-21.52-186.77-110.19-241.08-215.89
				c34.5,31.79,96.95,58.43,140.96,58.75c56.93,0.41,120.68-25.42,156.44-64.34c11.31,27.5,19.6,53,24.27,74.31
				C921.66,2484.46,884.55,2517.82,844.43,2525.59z"/>
		</g>
		<g>
			<path class="st1" d="M832.96,2544.13c-6.34,0-12.79-0.75-19.28-2.26l0,0c-84.95-19.68-175.19-94.07-235.49-194.13
				c-58.9-97.73-79.76-202.69-57.23-287.96l0.18-0.66c11.79-44.13,57.35-71.65,101.61-61.32
				c145.23,33.86,267.64,262.86,292.52,376.12c12.79,58.19,9.52,102.52-9.72,131.76c-12.94,19.68-32.39,32.14-57.81,37.06
				C842.9,2543.66,837.96,2544.13,832.96,2544.13z M821.56,2507.85c6.82,1.57,13.39,1.77,19.56,0.59
				c16.05-3.1,27.58-10.28,35.26-21.96c13.67-20.78,15.32-57.11,4.79-105.06c-23.48-106.83-142.43-320.71-266.34-349.6
				c-26.09-6.06-52.97,10.21-59.94,36.32l-17.04-3.89l16.88,4.46c-20.13,76.19-0.68,171.32,53.37,261.01
				C663.7,2421.96,745.5,2490.22,821.56,2507.85L821.56,2507.85z"/>
		</g>
		<g>
			<path class="st1" d="M774.16,2449.26c-43.55,0-94.44-9.2-147.44-37.83c-7.29-3.94-10-13.04-6.07-20.33
				c3.94-7.28,13.04-10.01,20.33-6.07c130.87,70.69,250.97,8.51,252.16,7.87c7.29-3.88,16.39-1.13,20.28,6.18
				c3.89,7.3,1.16,16.37-6.13,20.27C903.82,2421.22,850.16,2449.26,774.16,2449.26z"/>
		</g>
		<g>
			<path class="st1" d="M764.59,2316.53c-67.46,0-154.89-11.92-224.61-62.01c-6.73-4.83-8.27-14.2-3.43-20.93
				c4.83-6.73,14.2-8.28,20.93-3.43c119.57,85.89,304.8,47.64,306.67,47.25c8.11-1.73,16.07,3.44,17.8,11.54s-3.43,16.07-11.54,17.8
				C866.63,2307.55,823.14,2316.53,764.59,2316.53z"/>
		</g>
		<g>
			<path class="st1" d="M736.69,2188.18c-71.23,0-178.45-9.08-218.09-60.19c-5.08-6.55-3.89-15.97,2.66-21.04
				c6.54-5.09,15.97-3.89,21.04,2.66c41.62,53.65,201.02,51.38,258.91,45.97c8.3-0.75,15.56,5.3,16.33,13.54
				c0.77,8.25-5.28,15.56-13.53,16.33C800.88,2185.74,773.62,2188.18,736.69,2188.18z"/>
		</g>
	</g>
</g>
</svg>
