<svg width="3149" height="1848" viewBox="0 0 3149 1848" fill="none" xmlns="http://www.w3.org/2000/svg">
<g clip-path="url(#clip0_56_231)">
<ellipse cx="1574.5" cy="855" rx="1574.5" ry="855" fill="#006666"/>
<path d="M529.711 1852.54L590.791 885.42L1077 1052.83L529.711 1852.54Z" fill="#006666"/>
<path d="M543.648 1804.57L597.796 874.639L1073.5 1038.44L543.648 1804.57Z" fill="#C1C1C1"/>
<ellipse cx="1574.5" cy="855" rx="1546.5" ry="838" fill="#C1C1C1"/>
<ellipse cx="1574.5" cy="855" rx="1524.5" ry="816" fill="#CDCDCD"/>
<path d="M554.258 1774.56L596.89 920.014L1046.78 1074.92L554.258 1774.56Z" fill="#CDCDCD"/>
<path d="M560.992 1749.39L600.24 968.629L1010.75 1109.98L560.992 1749.39Z" fill="#E6E6E6"/>
<ellipse cx="1574.5" cy="855" rx="1491.5" ry="800" fill="#E6E6E6"/>
<path d="M565.894 1732.07L612.899 1024.15L964.689 1145.28L565.894 1732.07Z" fill="white"/>
<ellipse cx="1574.5" cy="855" rx="1483.5" ry="784" fill="white"/>
</g>
<defs>
<clipPath id="clip0_56_231">
<rect width="3149" height="1848" fill="white"/>
</clipPath>
</defs>
</svg>
